<svg width="16" height="15" viewBox="0 0 16 15" fill="none" xmlns="http://www.w3.org/2000/svg">
<path fill-rule="evenodd" clip-rule="evenodd" d="M13.961 2.06791C13.6653 1.83726 13.6192 1.4188 13.8581 1.13324C14.097 0.847692 14.5304 0.803184 14.8262 1.03383C15.122 1.26448 15.1681 1.68293 14.9292 1.96851C14.6903 2.25406 14.2568 2.29856 13.961 2.06791ZM13.7942 2.9901L13.0193 3.88778C14.5948 4.98604 15.6044 6.63383 15.6044 8.67395C15.6044 9.86737 15.2508 10.7756 14.5792 11.4365C13.9194 12.0857 13.0027 12.4462 11.9752 12.6525C11.8248 12.6827 11.5949 12.8 11.2861 13.0209C10.9892 13.2333 10.671 13.5027 10.345 13.7816L10.28 13.8371C9.98216 14.0921 9.67636 14.3539 9.39947 14.5567C9.25013 14.6662 9.0973 14.7674 8.94805 14.8443C8.80529 14.9179 8.62857 14.989 8.43904 14.9989C8.20613 15.0112 8.0018 14.9169 7.86707 14.7477C7.75509 14.6071 7.71245 14.4416 7.69189 14.3202C7.65341 14.0927 7.66275 13.8076 7.67034 13.5756L7.672 13.525C7.68005 13.2701 7.68258 13.0742 7.66057 12.938C5.69756 12.9345 3.82925 12.8542 2.4386 12.3146C1.713 12.033 1.09268 11.618 0.657528 11.0054C0.222108 10.3925 0 9.62101 0 8.67395C0 4.82447 3.59459 2.37192 7.8022 2.37192C9.42926 2.37192 10.9646 2.73864 12.236 3.41108L13.0757 2.4382C12.6768 1.8866 12.6842 1.126 13.144 0.576408C13.7014 -0.0898812 14.7128 -0.193735 15.4029 0.344447C16.0931 0.882628 16.2007 1.85904 15.6432 2.52534C15.1886 3.0687 14.4321 3.238 13.7942 2.9901ZM10.9505 5.59239C10.7558 5.43574 10.7295 5.15634 10.8918 4.96834L11.6387 4.10305C10.5538 3.56106 9.24065 3.2581 7.8022 3.2581C3.89867 3.2581 0.917906 5.48908 0.917906 8.67395C0.917906 9.48552 1.10677 10.071 1.41452 10.5042C1.72257 10.9378 2.17762 11.2582 2.78089 11.4923C4.01455 11.971 5.76124 12.0519 7.8022 12.0519C8.02814 12.0519 8.22405 12.1442 8.35985 12.3038C8.47812 12.4429 8.52939 12.6075 8.55564 12.7363C8.60727 12.9895 8.59738 13.3023 8.58965 13.5466L8.58947 13.552C8.58343 13.7434 8.57854 13.9005 8.58359 14.0252C8.65861 13.9814 8.74553 13.9234 8.8446 13.8508C9.09229 13.6693 9.37288 13.4292 9.6806 13.1659L9.73625 13.1183C10.0579 12.8432 10.4053 12.548 10.7396 12.3089C11.062 12.0783 11.4288 11.857 11.7883 11.7849C12.7288 11.5961 13.4439 11.2882 13.924 10.8159C14.3922 10.3551 14.6865 9.68856 14.6865 8.67395C14.6865 6.96555 13.8288 5.53162 12.4311 4.56927L11.5969 5.53567C11.4347 5.72366 11.1453 5.74907 10.9505 5.59239ZM6.19587 6.80282C6.44935 6.80282 6.65482 7.0012 6.65482 7.24592V8.35364C6.65482 8.59836 6.44935 8.79673 6.19587 8.79673C5.94239 8.79673 5.73691 8.59836 5.73691 8.35364V7.24592C5.73691 7.0012 5.94239 6.80282 6.19587 6.80282ZM8.94958 7.24592C8.94958 7.0012 8.74411 6.80282 8.49063 6.80282C8.23715 6.80282 8.03168 7.0012 8.03168 7.24592V8.35364C8.03168 8.59836 8.23715 8.79673 8.49063 8.79673C8.74411 8.79673 8.94958 8.59836 8.94958 8.35364V7.24592Z" fill="#0A1123"/>
</svg>
