<svg width="17" height="15" viewBox="0 0 17 15" fill="none" xmlns="http://www.w3.org/2000/svg">
<path d="M0.237548 5.16219L6.93756 8.37529C7.2114 8.50309 7.54001 8.52134 7.83211 8.39355L10.6801 7.20689C10.5523 6.87828 10.388 6.53141 10.2602 6.23931L7.70432 7.22515C7.54001 7.27992 7.35745 7.27992 7.19315 7.20689L1.11384 4.57799C1.11384 4.57799 1.82583 3.95728 1.8806 3.79297L0.255804 4.54148C0.237548 4.55973 0.219291 4.55973 0.201035 4.57799C0.146267 4.6145 0.0732422 4.70578 0.0732422 4.85183C0.0732422 5.07091 0.182779 5.12568 0.237548 5.16219Z" fill="#0A1123"/>
<path d="M14.2584 8.53946C14.2036 8.50295 13.9846 8.41167 13.7107 8.15608C13.3639 7.84573 12.944 7.29804 12.6336 6.38522C12.5971 6.25743 12.5606 6.12964 12.5241 6.00184C12.5241 6.00184 12.5241 6.00184 12.5241 5.98359C12.5058 5.92882 12.4876 5.85579 12.4693 5.80102C12.4693 5.78277 12.4693 5.78277 12.4693 5.78277C12.451 5.70974 12.4328 5.63672 12.4145 5.56369C12.4145 5.56369 12.2502 4.76042 11.8486 4.32227L10.1143 5.08903C10.1143 5.08903 10.3516 5.52718 10.6437 6.11138C10.6802 6.18441 10.7167 6.25743 10.7532 6.33046C10.8628 6.56779 10.9723 6.80512 11.0636 7.06071C11.1914 7.37106 11.3009 7.68142 11.3557 7.97352C11.3557 7.97352 11.52 8.53946 11.9581 9.01413C11.9581 9.01413 11.9581 9.03238 11.9764 9.03238C11.9946 9.05064 12.0312 9.08715 12.0494 9.10541C12.0677 9.12366 12.1042 9.16018 12.1407 9.17843C12.1407 9.17843 12.1407 9.17843 12.1589 9.19669C12.1772 9.21495 12.2137 9.2332 12.232 9.25146L12.2502 9.26972C12.2685 9.28797 12.305 9.30623 12.3415 9.32448C12.3415 9.32448 12.3415 9.32448 12.3598 9.32448C12.3963 9.34274 12.4328 9.361 12.451 9.39751L12.4693 9.41577C12.4876 9.43402 12.5241 9.45228 12.5423 9.45228C12.5606 9.45228 12.5606 9.47053 12.5788 9.47053C12.6154 9.48879 12.6519 9.50705 12.6884 9.5253V8.57598V8.32039L13.1448 8.37516L14.2584 8.53946Z" fill="#0A1123"/>
<path d="M16.4125 9.74429C16.3029 8.7767 15.9013 8.39332 15.3536 8.17425C15.6457 7.95517 16.3394 7.3162 16.2299 6.34862C16.1386 5.54534 15.8283 5.12545 15.4084 4.88812C15.7187 4.63253 16.3212 4.01182 16.2299 3.11726C16.1021 1.91234 15.4814 1.60199 14.7511 1.43768L8.19718 0.0136922C8.08764 -0.00456407 7.9781 -0.00456407 7.86856 0.0136922L0.529585 1.71153C0.36528 1.74804 0.36528 1.94886 0.511329 2.00363L7.37565 4.59602L14.6781 2.31398C14.6781 2.31398 15.5909 2.20445 15.5909 3.20854C15.5909 4.21264 14.7877 4.48648 14.7877 4.48648L12.7977 5.25324C12.8342 5.36278 12.8342 5.43581 12.8525 5.45406C12.9073 5.72791 12.9803 5.98349 13.0533 6.22082L14.4956 5.61837C14.6964 5.52709 14.9337 5.52709 15.1345 5.61837C15.3536 5.70965 15.5909 5.94698 15.5909 6.4399C15.5909 7.444 14.7877 7.71784 14.7877 7.71784L14.1669 7.97343C14.313 8.08296 14.4225 8.13773 14.4408 8.13773C14.6416 8.21076 14.7511 8.42983 14.6964 8.64891C14.6416 8.84973 14.459 8.97752 14.2765 8.97752C14.2582 8.97752 14.24 8.97752 14.2217 8.97752L13.1446 8.83147V9.52521C13.1446 9.56172 13.1446 9.61649 13.1263 9.653L14.6781 9.01403C14.8789 8.92275 15.1163 8.92275 15.3171 9.01403C15.5362 9.10532 15.7735 9.34265 15.7735 9.83557C15.7735 10.8397 14.9702 11.1135 14.9702 11.1135L7.85031 14.0528C7.686 14.1075 7.50344 14.1075 7.33914 14.0345L1.27809 11.1865C1.27809 11.1865 1.99008 10.5658 2.04485 10.4015L0.292255 11.0587C0.182718 11.0953 0.164462 11.2778 0.292255 11.3326L7.26611 14.9291C7.43042 15.0203 7.63123 15.0203 7.8138 14.9473L15.3171 11.6795C15.3901 11.6429 15.4631 11.6064 15.5362 11.5517C15.8283 11.3326 16.522 10.6936 16.4125 9.74429Z" fill="#0A1123"/>
<path d="M0.200818 8.24729L7.15642 11.789C7.39375 11.8985 7.66759 11.9168 7.90492 11.8073L12.469 9.90861C12.0308 9.70779 11.7022 9.39743 11.4649 9.08707L7.66759 10.6571C7.50328 10.7119 7.32072 10.7119 7.15642 10.6389L1.11363 7.79088C1.11363 7.79088 1.82562 7.17017 1.88039 7.00586L0.200818 7.60832C0.200818 7.60832 0.182562 7.60832 0.182562 7.62657C0.127793 7.64483 0 7.71785 0 7.93693C0 8.156 0.127793 8.22903 0.200818 8.24729Z" fill="#0A1123"/>
</svg>
