<svg width="14" height="15" viewBox="0 0 14 15" fill="none" xmlns="http://www.w3.org/2000/svg">
<path d="M0 12.3286C0 13.8014 1.18732 15 2.64677 15H11.3532C12.8127 15 14 13.8014 14 12.3286V6.05038C14 5.22689 13.6138 4.43531 12.9669 3.93253L8.61393 0.553269C7.66325 -0.184423 6.33624 -0.184423 5.38607 0.553269L1.0331 3.93253C0.386184 4.43531 0 5.22689 0 6.05038V12.3286ZM1.06161 6.05038C1.06161 5.55702 1.29306 5.08301 1.68054 4.78218L6.03351 1.40292C6.31809 1.18162 6.65892 1.07122 7 1.07122C7.34109 1.07122 7.68191 1.18162 7.96649 1.40292L12.3195 4.78218C12.7069 5.08301 12.9384 5.55702 12.9384 6.05038V12.3286C12.9384 13.2107 12.2272 13.9285 11.3532 13.9285H7.53081V10.7141C7.53081 10.4179 7.29314 10.1783 7 10.1783C6.70687 10.1783 6.4692 10.4179 6.4692 10.7141V13.9285H2.64677C1.77281 13.9285 1.06161 13.2107 1.06161 12.3286V6.05038Z" fill="#0A1123"/>
</svg>
