<svg width="14" height="15" viewBox="0 0 14 15" fill="none" xmlns="http://www.w3.org/2000/svg">
<path d="M0.739733 10.7583C0.32877 10.7583 0 11.0871 0 11.498V14.2598C0 14.6708 0.32877 14.9995 0.739733 14.9995C1.1507 14.9995 1.47947 14.6708 1.47947 14.2598V11.498C1.47947 11.0871 1.1507 10.7583 0.739733 10.7583ZM0.739733 12.0901C0.410963 12.0901 0.13164 11.8107 0.13164 11.482C0.13164 11.1532 0.410963 10.8739 0.739733 10.8739C1.0685 10.8739 1.34783 11.1532 1.34783 11.482C1.34783 11.8107 1.0685 12.0901 0.739733 12.0901Z" fill="#0A1123"/>
<path d="M3.63329 9.77246C3.22233 9.77246 2.89355 10.1012 2.89355 10.5122V14.2603C2.89355 14.6712 3.22233 15 3.63329 15C4.04425 15 4.37302 14.6712 4.37302 14.2603V10.5122C4.37302 10.1012 4.04425 9.77246 3.63329 9.77246ZM3.63329 11.1042C3.30452 11.1042 3.02519 10.8249 3.02519 10.4961C3.02519 10.1674 3.30452 9.88805 3.63329 9.88805C3.96206 9.88805 4.24138 10.1674 4.24138 10.4961C4.24138 10.8249 3.96206 11.1042 3.63329 11.1042Z" fill="#0A1123"/>
<path d="M6.54247 7.88184C6.1315 7.88184 5.80273 8.2106 5.80273 8.62156V14.26C5.80273 14.671 6.1315 14.9998 6.54247 14.9998C6.95343 14.9998 7.2822 14.671 7.2822 14.26V8.62156C7.2822 8.2106 6.95343 7.88184 6.54247 7.88184ZM6.54247 9.2136C6.2137 9.2136 5.93437 8.93428 5.93437 8.60551C5.93437 8.27675 6.2137 7.99743 6.54247 7.99743C6.87124 7.99743 7.15056 8.27675 7.15056 8.60551C7.15056 8.93428 6.87124 9.2136 6.54247 9.2136Z" fill="#0A1123"/>
<path d="M9.43505 5.6626C9.02408 5.6626 8.69531 5.99136 8.69531 6.40232V14.26C8.69531 14.6709 9.02408 14.9997 9.43505 14.9997C9.84601 14.9997 10.1748 14.6709 10.1748 14.26V6.40232C10.1748 5.99136 9.84601 5.6626 9.43505 5.6626ZM9.43505 6.99436C9.10628 6.99436 8.82695 6.71504 8.82695 6.38627C8.82695 6.05751 9.10628 5.77819 9.43505 5.77819C9.76382 5.77819 10.0431 6.05751 10.0431 6.38627C10.0431 6.71504 9.76382 6.99436 9.43505 6.99436Z" fill="#0A1123"/>
<path d="M12.3452 2.53955C11.9342 2.53955 11.6055 2.86832 11.6055 3.27927V14.2602C11.6055 14.6711 11.9342 14.9999 12.3452 14.9999C12.7562 14.9999 13.0849 14.6711 13.0849 14.2602V3.27927C13.0849 2.86832 12.7562 2.53955 12.3452 2.53955ZM12.3452 3.87131C12.0164 3.87131 11.7371 3.59199 11.7371 3.26323C11.7371 2.93446 12.0164 2.65514 12.3452 2.65514C12.674 2.65514 12.9533 2.93446 12.9533 3.26323C12.9533 3.59199 12.674 3.87131 12.3452 3.87131Z" fill="#0A1123"/>
<path d="M0.41109 9.66889C0.416227 9.66889 0.420722 9.66825 0.425859 9.66761C3.79197 9.05117 9.26731 4.60907 11.9989 0.299124L12.2924 1.42026C12.302 1.45686 12.3354 1.4819 12.372 1.4819C12.379 1.4819 12.3855 1.48126 12.3925 1.47934C12.4362 1.46778 12.4625 1.42283 12.451 1.37917L12.1061 0.0615416C12.0946 0.0178784 12.0496 -0.00844914 12.006 0.00246585L10.6883 0.347291C10.6446 0.358849 10.6183 0.403797 10.6299 0.447462C10.6414 0.491125 10.6857 0.516812 10.73 0.506538L11.8596 0.211159C9.14852 4.48888 3.72447 8.89713 0.395675 9.50649C0.350725 9.51484 0.321189 9.55786 0.329536 9.60217C0.3366 9.64198 0.371275 9.66959 0.410445 9.66959L0.41109 9.66889Z" fill="#0A1123"/>
</svg>
