<svg width="22" height="15" viewBox="0 0 22 15" fill="none" xmlns="http://www.w3.org/2000/svg">
<path d="M10.3352 6.84697C10.0568 6.86955 9.83808 7.11349 9.83808 7.40375V8.59973C9.83808 8.88997 10.0567 9.13506 10.3352 9.15651C10.5713 9.17458 10.8095 9.19152 11.0456 9.20733C11.137 9.54389 11.2653 9.86802 11.4307 10.1741C11.2729 10.3615 11.1152 10.5502 10.9629 10.7365C10.7791 10.9601 10.7921 11.2853 10.9923 11.4932L11.8082 12.3402C11.9137 12.4497 12.0507 12.5051 12.1878 12.5051C12.3118 12.5051 12.4358 12.4599 12.5381 12.3695C12.7187 12.2092 12.8993 12.0454 13.0787 11.8839C13.3725 12.0545 13.6836 12.1889 14.0067 12.2837C14.023 12.531 14.0393 12.7795 14.0578 13.0246C14.0806 13.3182 14.3112 13.5384 14.5941 13.5384H15.7483C16.0322 13.5384 16.2628 13.3171 16.2846 13.0234C16.3031 12.7784 16.3194 12.5299 16.3357 12.2837C16.6588 12.1888 16.9699 12.0556 17.2636 11.8839C17.4431 12.0465 17.6248 12.2103 17.8053 12.3707C17.9076 12.461 18.0316 12.5051 18.1545 12.5051C18.2916 12.5051 18.4287 12.4497 18.5342 12.3402L19.3501 11.4932C19.5502 11.2854 19.5633 10.959 19.3784 10.7354C19.225 10.549 19.0672 10.3615 18.9106 10.1741C19.0748 9.86914 19.2043 9.54614 19.2957 9.21074C19.5339 9.1938 19.7732 9.17686 20.0093 9.15766C20.2921 9.13394 20.5042 8.89452 20.5042 8.60088V7.40264C20.5042 7.10789 20.291 6.86844 20.0082 6.84586C19.7721 6.82666 19.5328 6.80972 19.2957 6.79278C19.2043 6.45622 19.0748 6.1321 18.9095 5.8272C19.0661 5.64085 19.2239 5.4545 19.3773 5.26816C19.5589 5.04794 19.547 4.71477 19.349 4.50923L18.5342 3.66334C18.3362 3.45779 18.0153 3.44537 17.8032 3.6351C17.6259 3.79322 17.4453 3.95698 17.2658 4.12073C16.971 3.94907 16.6577 3.81355 16.3324 3.71869C16.3172 3.47475 16.3009 3.22855 16.2824 2.98008C16.2606 2.69097 16.0256 2.46396 15.7461 2.46396H14.5941C14.3145 2.46396 14.0784 2.69096 14.0578 2.98008C14.0403 3.22628 14.024 3.47361 14.0088 3.71756C13.6835 3.81243 13.3702 3.94682 13.0754 4.11848C12.8981 3.95698 12.7175 3.79435 12.537 3.63285C12.3248 3.44425 12.0039 3.45667 11.8059 3.66221L10.9911 4.50811C10.7932 4.71365 10.7812 5.04682 10.9639 5.26704C11.1173 5.45225 11.2751 5.63973 11.4317 5.82494C11.2664 6.131 11.1358 6.45625 11.0445 6.79394C10.8073 6.80975 10.5691 6.82669 10.333 6.84589L10.3352 6.84697ZM11.2468 4.77233L12.0616 3.92644C12.128 3.85755 12.2324 3.85303 12.3042 3.91627C12.5163 4.10487 12.7284 4.29686 12.9351 4.48548C12.9417 4.49113 12.9493 4.49339 12.9558 4.49791C12.9634 4.50355 12.971 4.50807 12.9797 4.51259C12.9993 4.52162 13.0189 4.52727 13.0396 4.5284C13.045 4.5284 13.0494 4.53179 13.0537 4.53179L13.0581 4.53066C13.0863 4.52953 13.1135 4.52162 13.1396 4.50694C13.1418 4.50581 13.144 4.50581 13.1462 4.50468C13.4812 4.29462 13.8446 4.13878 14.2231 4.04164C14.2264 4.04051 14.2286 4.03825 14.2307 4.03712C14.2416 4.03373 14.2514 4.02695 14.2623 4.02131C14.2732 4.01566 14.284 4.01001 14.2928 4.00211C14.3004 3.99533 14.3069 3.9863 14.3134 3.97839C14.3221 3.96823 14.3297 3.95919 14.3363 3.9479C14.3417 3.93886 14.3439 3.92757 14.3471 3.91741C14.3515 3.90498 14.3558 3.89256 14.3569 3.87901C14.3569 3.87562 14.3591 3.87336 14.3591 3.8711C14.3765 3.5865 14.3961 3.29513 14.4168 3.00714C14.4244 2.90889 14.5005 2.83548 14.5952 2.83548H15.7472C15.8418 2.83548 15.918 2.90889 15.9256 3.00714C15.9473 3.29738 15.9669 3.58875 15.9843 3.87223C15.9843 3.87562 15.9865 3.87788 15.9865 3.88126C15.9876 3.89369 15.9919 3.90385 15.9952 3.91515C15.9985 3.92644 16.0017 3.93886 16.0072 3.94903C16.0126 3.95806 16.0191 3.96597 16.0257 3.975C16.0333 3.98517 16.0409 3.9942 16.0496 4.00324C16.0572 4.01001 16.0659 4.01453 16.0746 4.02018C16.0855 4.02695 16.0975 4.03373 16.1094 4.03712C16.1138 4.03825 16.1159 4.04163 16.1203 4.04276C16.5 4.13989 16.8622 4.29687 17.1973 4.50694C17.1994 4.50807 17.2016 4.50807 17.2038 4.5092C17.2288 4.52388 17.2571 4.53179 17.2854 4.53291L17.2897 4.53404C17.2952 4.53404 17.2995 4.53066 17.3039 4.53066C17.3245 4.5284 17.3441 4.52388 17.3637 4.51484C17.3724 4.51033 17.3789 4.50581 17.3876 4.50129C17.3942 4.49677 17.4029 4.49452 17.4083 4.48887C17.6182 4.29688 17.8304 4.1049 18.0381 3.91966C18.1099 3.85528 18.2144 3.8598 18.2807 3.92869L19.0955 4.77459C19.1619 4.84348 19.1662 4.9519 19.1053 5.02643C18.9258 5.2444 18.7409 5.46462 18.557 5.68145C18.5549 5.68371 18.5549 5.6871 18.5527 5.68936C18.5451 5.69952 18.5396 5.71195 18.5342 5.72324C18.5298 5.73341 18.5233 5.74244 18.5211 5.75373C18.5179 5.76503 18.5179 5.77745 18.5168 5.78874C18.5157 5.80004 18.5135 5.81246 18.5146 5.82375C18.5157 5.83505 18.52 5.84521 18.5233 5.8565C18.5266 5.86893 18.5298 5.88135 18.5364 5.89264C18.5374 5.8949 18.5374 5.89829 18.5396 5.90055C18.7409 6.24838 18.891 6.62334 18.9856 7.01636C18.9867 7.01975 18.9889 7.02201 18.9889 7.0254C18.9911 7.0333 18.9954 7.04121 18.9987 7.04911C19.0041 7.06266 19.0107 7.07396 19.0194 7.08525C19.0248 7.09203 19.0302 7.09767 19.0357 7.10332C19.0455 7.11349 19.0564 7.12139 19.0672 7.1293C19.0738 7.13381 19.0803 7.1372 19.0879 7.14059C19.102 7.14737 19.1173 7.15075 19.1325 7.15301C19.1379 7.15414 19.1423 7.1564 19.1466 7.15753C19.424 7.1756 19.7047 7.19706 19.981 7.21964C20.0746 7.22755 20.1464 7.3066 20.1464 7.40486V8.6031C20.1464 8.70135 20.0757 8.78041 19.9821 8.78831C19.7058 8.8109 19.4251 8.83235 19.1477 8.85042C19.1445 8.85042 19.1423 8.85268 19.1401 8.85268C19.1281 8.85381 19.1162 8.85833 19.1042 8.86285C19.0933 8.86623 19.0825 8.86849 19.0727 8.87414C19.0629 8.87979 19.0553 8.88769 19.0466 8.8956C19.0379 8.9035 19.0281 8.91028 19.0205 8.91931C19.0139 8.92835 19.0096 8.93851 19.0041 8.94755C18.9976 8.95884 18.9911 8.97014 18.9878 8.98256C18.9867 8.98482 18.9846 8.98707 18.9846 8.99046C18.891 9.38236 18.7409 9.75616 18.5396 10.1029C18.5385 10.1052 18.5385 10.1085 18.5364 10.1108C18.5298 10.1221 18.5277 10.1345 18.5233 10.1481C18.52 10.1594 18.5157 10.1695 18.5146 10.1808C18.5135 10.1932 18.5157 10.2045 18.5168 10.2158C18.5179 10.2283 18.5179 10.2395 18.5211 10.2508C18.5244 10.261 18.5298 10.2712 18.5342 10.2813C18.5396 10.2926 18.5451 10.305 18.5527 10.3152C18.5549 10.3175 18.5548 10.3209 18.557 10.3231C18.7409 10.5411 18.9258 10.7613 19.1053 10.9793C19.1662 11.0538 19.163 11.1622 19.0955 11.2311L18.2796 12.0781C18.2133 12.147 18.1089 12.1515 18.0371 12.0883C17.826 11.902 17.6128 11.71 17.4039 11.5202C17.4018 11.518 17.3996 11.518 17.3974 11.5157C17.3876 11.5067 17.3757 11.5022 17.3637 11.4954C17.3539 11.4909 17.3452 11.4841 17.3354 11.4818C17.3245 11.4785 17.3126 11.4785 17.3006 11.4773C17.2897 11.4762 17.2789 11.4739 17.2669 11.4751C17.256 11.4762 17.2462 11.4807 17.2353 11.4841C17.2234 11.4875 17.2114 11.4909 17.1994 11.4977C17.1973 11.4988 17.194 11.4988 17.1918 11.4999C16.8579 11.7088 16.4967 11.8636 16.1203 11.9607C16.117 11.9618 16.1149 11.9641 16.1127 11.9641C16.1007 11.9675 16.0909 11.9743 16.08 11.9799C16.0703 11.9856 16.0594 11.9901 16.0507 11.998C16.042 12.0059 16.0354 12.0149 16.0278 12.024C16.0202 12.033 16.0126 12.042 16.0072 12.0522C16.0017 12.0623 15.9995 12.0725 15.9963 12.0838C15.9919 12.0962 15.9876 12.1087 15.9865 12.1222C15.9865 12.1256 15.9843 12.1279 15.9843 12.1301C15.9669 12.4181 15.9462 12.7095 15.9245 12.9963C15.9169 13.0935 15.8407 13.168 15.7461 13.168H14.5919C14.4973 13.168 14.4211 13.0946 14.4135 12.9975C14.3917 12.7106 14.3711 12.4192 14.3526 12.1312C14.3526 12.1279 14.3504 12.1256 14.3504 12.1233C14.3493 12.1098 14.345 12.0974 14.3406 12.0849C14.3374 12.0748 14.3352 12.0635 14.3297 12.0544C14.3243 12.0432 14.3156 12.0341 14.308 12.0251C14.3004 12.016 14.2949 12.007 14.2862 12.0002C14.2775 11.9935 14.2677 11.9878 14.2569 11.9822C14.246 11.9765 14.2362 11.9697 14.2242 11.9664C14.222 11.9652 14.2199 11.963 14.2166 11.963C13.8391 11.8658 13.4791 11.71 13.1451 11.501C13.1429 11.4999 13.1396 11.4999 13.1375 11.4977C13.1266 11.4909 13.1146 11.4886 13.1016 11.4841C13.0907 11.4807 13.0809 11.4762 13.07 11.4751C13.0581 11.4739 13.0472 11.4762 13.0363 11.4773C13.0243 11.4785 13.0135 11.4785 13.0026 11.4818C12.9917 11.4852 12.983 11.4909 12.9732 11.4965C12.9623 11.5022 12.9504 11.5078 12.9406 11.5157C12.9384 11.518 12.9351 11.518 12.933 11.5202C12.7252 11.71 12.5131 11.9008 12.3009 12.0895C12.2291 12.1527 12.1247 12.1493 12.0583 12.0793L11.2425 11.2323C11.1761 11.1634 11.1718 11.055 11.2327 10.9804C11.4111 10.7625 11.596 10.5422 11.7798 10.3232C11.782 10.3209 11.782 10.3186 11.7842 10.3152C11.7918 10.3051 11.7973 10.2927 11.8027 10.2814C11.807 10.2712 11.8136 10.2622 11.8157 10.2509C11.819 10.2396 11.819 10.2272 11.8201 10.2159C11.8212 10.2034 11.8234 10.1921 11.8223 10.1809C11.8212 10.1696 11.8168 10.1594 11.8136 10.1481C11.8103 10.1357 11.807 10.1233 11.8005 10.1108C11.7994 10.1086 11.7994 10.1052 11.7973 10.1029C11.596 9.75509 11.4459 9.38014 11.3523 8.98711C11.3512 8.98372 11.3491 8.9826 11.3491 8.97921C11.3458 8.96679 11.3393 8.95549 11.3327 8.9442C11.3273 8.93404 11.3229 8.92387 11.3164 8.91597C11.3088 8.90693 11.3001 8.90016 11.2914 8.89225C11.2827 8.88434 11.274 8.87644 11.2642 8.87079C11.2544 8.86514 11.2446 8.86289 11.2337 8.8595C11.2218 8.85498 11.2098 8.85046 11.1968 8.84933C11.1935 8.84933 11.1913 8.84708 11.1891 8.84708C10.9139 8.82901 10.6333 8.80868 10.3569 8.78722C10.2623 8.77931 10.1916 8.70026 10.1916 8.60201V7.40602C10.1916 7.30777 10.2623 7.22871 10.3569 7.22081C10.6333 7.19822 10.9139 7.17789 11.1902 7.15982C11.1957 7.15982 11.2 7.15643 11.2055 7.1553C11.2207 7.15305 11.2359 7.14966 11.2501 7.14288C11.2577 7.13949 11.2642 7.13498 11.2718 7.13046C11.2838 7.12368 11.2936 7.11465 11.3034 7.10561C11.3099 7.09997 11.3153 7.09432 11.3197 7.08641C11.3284 7.07512 11.3338 7.06383 11.3404 7.05027C11.3436 7.04237 11.348 7.03446 11.3501 7.02656C11.3512 7.02317 11.3534 7.02091 11.3534 7.01752C11.447 6.62337 11.5982 6.24729 11.8005 5.89946C11.8016 5.8972 11.8016 5.89381 11.8038 5.89155C11.8103 5.88026 11.8125 5.8667 11.8168 5.85428C11.8201 5.84299 11.8234 5.83282 11.8244 5.82153C11.8255 5.81024 11.8234 5.79781 11.8223 5.78652C11.8212 5.7741 11.8212 5.7628 11.8179 5.75151C11.8147 5.74135 11.8092 5.73118 11.8049 5.72102C11.7994 5.70972 11.794 5.6973 11.7864 5.68714C11.7842 5.68488 11.7842 5.68149 11.782 5.67923C11.5982 5.46352 11.4143 5.2433 11.2337 5.02534C11.1717 4.9508 11.1761 4.84238 11.2424 4.77349L11.2468 4.77233ZM12.7089 8.00233C12.7089 6.59176 13.8141 5.44545 15.1717 5.44545C16.5304 5.44545 17.6346 6.59289 17.6346 8.00233C17.6346 9.4129 16.5293 10.5592 15.1717 10.5592C13.813 10.5592 12.7089 9.41177 12.7089 8.00233ZM5.50531 4.08568C4.65897 4.08568 3.97038 4.80058 3.97038 5.6792C3.97038 6.55782 4.65899 7.27272 5.50531 7.27272C6.35165 7.27272 7.04023 6.55782 7.04023 5.6792C7.04023 4.80058 6.35162 4.08568 5.50531 4.08568ZM5.50531 7.04015C4.78298 7.04015 4.19448 6.43029 4.19448 5.67929C4.19448 4.92938 4.78192 4.31842 5.50531 4.31842C6.22764 4.31842 6.81614 4.92828 6.81614 5.67929C6.81614 6.4292 6.2287 7.04015 5.50531 7.04015ZM9.1192 10.3572L9.26715 9.83654C8.83419 10.2612 8.32944 10.6169 7.77572 10.8801C7.07951 11.2121 6.30388 11.3996 5.4902 11.4007H5.48041C3.96832 11.4007 2.59865 10.7638 1.6078 9.73266C0.616788 8.70268 0.00325827 7.28081 0 5.7099V5.69974C0 4.12542 0.614616 2.70017 1.6078 1.66918C2.60099 0.638078 3.97384 0 5.49016 0C6.33976 0 7.14475 0.201025 7.86379 0.559034C8.61005 0.931733 9.26273 1.4727 9.77512 2.13674C9.82081 2.19659 9.8121 2.28243 9.75445 2.33099C9.69679 2.37842 9.61412 2.36939 9.56734 2.30953C9.07891 1.67709 8.45775 1.16209 7.7485 0.807489C7.06535 0.466419 6.29952 0.276701 5.48907 0.276701C4.04661 0.276701 2.74012 0.884307 1.79469 1.86571C0.849267 2.84711 0.264115 4.20347 0.264115 5.70112V5.71128C0.266291 7.20543 0.851551 8.5584 1.79469 9.53975C2.73784 10.52 4.03998 11.1254 5.47905 11.1265H5.48884C6.26336 11.1254 7.00092 10.9469 7.6645 10.6307C8.23016 10.3619 8.74145 9.99265 9.17224 9.5488L8.48037 9.68997C8.40858 9.70465 8.33896 9.65609 8.32482 9.58042C8.31067 9.50588 8.35745 9.4336 8.43034 9.41892L9.52361 9.19644C9.59541 9.18176 9.66503 9.23032 9.67917 9.30599C9.68352 9.33083 9.68134 9.35681 9.67373 9.37827L9.37241 10.4365C9.35174 10.5099 9.27777 10.5517 9.20815 10.5302C9.13744 10.5088 9.09719 10.432 9.11786 10.3597L9.1192 10.3572ZM8.44366 6.97134C8.50349 6.82114 8.55353 6.66641 8.5916 6.50717C8.59813 6.47781 8.62206 6.45522 8.65252 6.45296C8.76021 6.44618 8.87008 6.43828 8.98431 6.42924C9.09091 6.42134 9.20187 6.4123 9.31609 6.40327C9.37266 6.39875 9.42379 6.37165 9.45968 6.33099C9.49558 6.29033 9.51734 6.23613 9.51734 6.1774V5.22534C9.51734 5.16548 9.49558 5.11127 9.45968 5.07175C9.42378 5.03109 9.37375 5.00511 9.31609 5.0006C9.20187 4.99156 9.09091 4.98253 8.98431 4.97462C8.87008 4.96672 8.76021 4.95881 8.65252 4.95091C8.62206 4.94865 8.59813 4.92606 8.5916 4.8967C8.55353 4.73746 8.50349 4.58162 8.44366 4.43139C8.38274 4.27893 8.31203 4.13326 8.23044 3.99321C8.22609 3.98531 8.22283 3.9774 8.22065 3.96837C8.21956 3.96498 8.21956 3.96272 8.21956 3.96046V3.95707C8.21956 3.94239 8.22391 3.92884 8.23153 3.91642L8.23588 3.91077C8.31964 3.81252 8.39253 3.72555 8.45454 3.65102C8.52525 3.56631 8.59813 3.47935 8.6721 3.38901C8.70909 3.34383 8.72649 3.28736 8.72432 3.23202C8.72214 3.17668 8.70039 3.12248 8.66014 3.08069L8.00962 2.40534C7.96937 2.36469 7.91825 2.34436 7.86603 2.3421C7.81273 2.33984 7.75834 2.35791 7.71482 2.39744C7.64303 2.46068 7.55926 2.53635 7.46354 2.62331C7.3776 2.70011 7.29492 2.77577 7.21333 2.85031L7.21224 2.85144C7.19593 2.86387 7.18287 2.86725 7.16873 2.86725H7.16547C7.1622 2.86725 7.16003 2.86725 7.15785 2.86612C7.14806 2.86387 7.14045 2.86048 7.13283 2.85596C6.99794 2.77126 6.85652 2.69672 6.70968 2.63348C6.56499 2.57136 6.41487 2.51941 6.2604 2.47989C6.23211 2.47311 6.20927 2.44826 6.20818 2.41664C6.20165 2.30371 6.19404 2.18851 6.18642 2.07219C6.17881 1.96151 6.17119 1.84745 6.16249 1.72886C6.15814 1.66901 6.13203 1.61706 6.09396 1.57979C6.0548 1.54252 6.00258 1.51993 5.94493 1.51993H5.03005C4.97239 1.51993 4.92018 1.54252 4.88101 1.57979C4.84185 1.61706 4.81574 1.67014 4.81139 1.72886C4.80269 1.84745 4.79508 1.96264 4.78746 2.07219C4.77985 2.18851 4.77223 2.30371 4.7657 2.41664C4.76353 2.44826 4.74177 2.47311 4.71349 2.47989C4.55902 2.51941 4.40888 2.57136 4.26421 2.63348C4.11844 2.69672 3.97704 2.77013 3.84105 2.85483C3.83344 2.85935 3.82582 2.86274 3.81712 2.86499C3.81386 2.86612 3.81168 2.86612 3.80951 2.86612H3.80624C3.7921 2.86612 3.77905 2.86161 3.76708 2.8537L3.76164 2.84918C3.667 2.76222 3.58324 2.68656 3.51144 2.62218C3.42985 2.54877 3.34609 2.47423 3.26015 2.39744C3.21664 2.35904 3.16225 2.34097 3.10894 2.34323C3.05564 2.34549 3.00342 2.36808 2.96317 2.40986L2.31266 3.08521C2.2735 3.12699 2.25392 3.18007 2.25174 3.23428C2.24957 3.28962 2.26697 3.34609 2.30505 3.39126C2.36706 3.4658 2.43885 3.55276 2.52261 3.65214C2.59659 3.74024 2.66947 3.82719 2.74127 3.9119L2.74236 3.91303C2.75432 3.92997 2.75759 3.94352 2.75759 3.9582V3.96159C2.75759 3.96498 2.75759 3.96724 2.7565 3.96949C2.75432 3.97966 2.75106 3.98756 2.74671 3.99547C2.66512 4.13551 2.59332 4.28233 2.53241 4.43478C2.47258 4.58498 2.42254 4.74084 2.38446 4.90121C2.37793 4.93057 2.354 4.95316 2.32354 4.95542C2.21476 4.9622 2.1038 4.9701 1.99176 4.97801C1.88515 4.98591 1.77528 4.99382 1.65997 5.00285C1.60231 5.00737 1.55227 5.03448 1.51638 5.074C1.48048 5.11466 1.45872 5.16887 1.45872 5.22872V6.17853C1.45872 6.23838 1.48048 6.29259 1.51638 6.33325C1.55228 6.37391 1.6034 6.40101 1.65997 6.40553C1.77419 6.41456 1.88515 6.42247 1.99067 6.43037C2.10272 6.43828 2.21367 6.44619 2.32246 6.45296C2.35292 6.45522 2.37685 6.47781 2.38337 6.50717C2.42145 6.66754 2.47149 6.82341 2.53132 6.97247C2.59224 7.12494 2.66403 7.27177 2.74562 7.41291L2.7478 7.4163C2.75541 7.4355 2.7565 7.44679 2.75541 7.45696V7.46712L2.74889 7.4739C2.74671 7.47954 2.74236 7.48406 2.73909 7.48858C2.6673 7.57328 2.59441 7.66024 2.52153 7.7472C2.45082 7.8319 2.37794 7.91999 2.30396 8.01034C2.26698 8.05552 2.24957 8.11086 2.25175 8.16619C2.25392 8.22153 2.27568 8.27574 2.31593 8.31753L2.96753 8.994C3.00778 9.03353 3.0589 9.05499 3.11003 9.05724C3.16334 9.0595 3.21664 9.04143 3.26015 9.00303C3.34609 8.92624 3.43094 8.8517 3.51253 8.77716C3.58542 8.71166 3.66918 8.63599 3.76273 8.55016L3.76382 8.54903C3.78014 8.53661 3.79319 8.53322 3.80733 8.53322H3.8106C3.81386 8.53322 3.81604 8.53322 3.81821 8.53435C3.828 8.53661 3.83562 8.54 3.84214 8.54451C3.97704 8.62809 4.11736 8.70263 4.26313 8.76474C4.40781 8.82685 4.55685 8.8788 4.71024 8.91833C4.73852 8.92511 4.76028 8.94995 4.76245 8.98158C4.76898 9.09225 4.77659 9.20745 4.7853 9.32603C4.79291 9.43671 4.80161 9.5519 4.81032 9.67161C4.81467 9.73033 4.84078 9.78228 4.87994 9.81955C4.9191 9.85682 4.97131 9.87941 5.02788 9.87941H5.94493C6.00259 9.87941 6.0548 9.85682 6.09288 9.81955C6.13204 9.78228 6.15706 9.73034 6.1625 9.67048C6.1712 9.55189 6.1799 9.4367 6.18752 9.32603C6.19513 9.20744 6.20275 9.09225 6.21036 8.98157C6.21254 8.94995 6.2343 8.92511 6.26258 8.91833C6.41596 8.8788 6.56607 8.82685 6.70969 8.76474C6.85654 8.70149 6.99797 8.62696 7.13284 8.54338C7.16004 8.52644 7.19267 8.53209 7.21443 8.55355C7.29602 8.62696 7.37869 8.70262 7.46246 8.77829C7.54404 8.8517 7.62889 8.92736 7.71483 9.00303C7.75835 9.04143 7.81165 9.0595 7.86495 9.05724C7.91826 9.05498 7.97047 9.03239 8.01072 8.99061L8.66232 8.31413C8.70039 8.27235 8.72106 8.21927 8.72324 8.16619C8.72541 8.11085 8.70801 8.05438 8.67102 8.01034C8.59705 7.92112 8.52525 7.83303 8.45346 7.74833C8.38057 7.66137 8.30877 7.57553 8.23806 7.49196C8.21631 7.4705 8.21196 7.43549 8.22827 7.40726C8.30986 7.26722 8.38166 7.1204 8.44149 6.96795L8.44366 6.97134ZM6.81953 7.08089C6.47903 7.43439 6.00909 7.65236 5.49021 7.65236C4.97134 7.65236 4.50029 7.43326 4.1609 7.08089C3.82039 6.72739 3.61044 6.23951 3.61044 5.70083C3.61044 5.16212 3.82148 4.67311 4.1609 4.32077C4.5014 3.96726 4.97134 3.7493 5.49021 3.7493C6.00909 3.7493 6.48014 3.96839 6.81953 4.32077C7.16004 4.67427 7.36999 5.16215 7.36999 5.70083C7.36999 6.23954 7.15895 6.72855 6.81953 7.08089ZM21.9992 7.94373C21.9992 9.89188 21.2388 11.656 20.0085 12.9333C18.7781 14.2106 17.0799 15 15.2024 15C13.9144 15 12.7102 14.6273 11.682 13.9802C10.6192 13.3105 9.74788 12.3483 9.17242 11.2008C9.1387 11.1331 9.16372 11.0495 9.22899 11.0145C9.29426 10.9795 9.37476 11.0055 9.40848 11.0732C9.96219 12.1766 10.7998 13.1015 11.8202 13.7442C12.8058 14.3653 13.9643 14.7233 15.2032 14.7233C17.0069 14.7233 18.6386 13.9644 19.8211 12.7379C21.0025 11.5114 21.7335 9.81639 21.7335 7.94379C21.7335 6.0713 21.0025 4.37726 19.8211 3.14967C18.6397 1.92318 17.007 1.16426 15.2032 1.16426C14.0828 1.16426 13.0287 1.45675 12.1084 1.97176C11.2904 2.42914 10.5779 3.0627 10.0166 3.82276L10.7215 3.50994C10.7889 3.48057 10.8672 3.5122 10.8955 3.58335C10.9238 3.65337 10.8933 3.73468 10.8248 3.76404L9.69236 4.26774C9.66626 4.28129 9.63471 4.28581 9.60425 4.27791C9.53245 4.26096 9.48785 4.18643 9.50526 4.11189L9.78917 2.8549C9.80549 2.78036 9.87729 2.73406 9.94908 2.75213C10.0209 2.76907 10.0655 2.84361 10.0481 2.91815L9.91318 3.51557C10.48 2.78715 11.1827 2.17729 11.9822 1.73005C12.9406 1.1936 14.0382 0.88867 15.2032 0.88867C17.0797 0.88867 18.7789 1.6781 20.0093 2.95538C21.2396 4.23267 22 5.99572 22 7.94494L21.9992 7.94373Z" fill="#0A1123"/>
</svg>
