<svg width="15" height="15" viewBox="0 0 15 15" fill="none" xmlns="http://www.w3.org/2000/svg">
<path d="M7.60299 2.53801V2.53874C7.39193 2.53801 7.22087 2.70677 7.22087 2.91497V7.50008C7.22087 7.64619 7.30455 7.77258 7.42747 7.83542L10.2253 9.42951C10.2853 9.46311 10.3512 9.47992 10.4164 9.47992C10.5482 9.47992 10.6763 9.41197 10.7474 9.29143C10.8526 9.11098 10.7904 8.88013 10.6075 8.77638L7.98515 7.28237V2.91496C7.98515 2.70675 7.81404 2.53801 7.60299 2.53801ZM14.6175 8.80559C14.5524 8.80559 14.4872 8.82166 14.4265 8.856C14.2436 8.96047 14.1813 9.19061 14.2865 9.37105C14.3576 9.49232 14.4857 9.55953 14.6183 9.55953C14.6827 9.55953 14.7486 9.54346 14.8086 9.50912C14.9915 9.40465 15.0545 9.17452 14.9486 8.99407C14.8782 8.87353 14.7494 8.80559 14.6175 8.80559ZM7.60962 7.45549e-05C7.04605 7.45549e-05 6.47287 0.0621725 5.89969 0.192205H5.89895C1.80814 1.12075 -0.746101 5.14463 0.195175 9.18101C0.983117 12.5605 3.97279 14.8772 7.32669 14.9956C7.4163 14.9985 7.5059 15 7.59626 15C8.16057 15 8.73301 14.9379 9.3062 14.8079H9.30694C11.4168 14.3286 13.1179 13.0268 14.142 11.3238V11.323C14.1872 11.2441 14.2042 11.1484 14.182 11.0527C14.1413 10.8781 13.9836 10.7605 13.8095 10.7605C13.7814 10.7605 13.7525 10.7634 13.7236 10.77C13.6096 10.7956 13.5185 10.8686 13.4689 10.9636V10.9643C12.4639 12.6176 10.7525 13.8361 8.6715 14.1614C8.30936 14.2176 7.94945 14.2454 7.59399 14.2454C7.51327 14.2454 7.43181 14.2439 7.3511 14.241C4.1481 14.1278 1.37034 11.7943 0.850509 8.5543C0.260283 4.87589 2.80491 1.42098 6.53419 0.83877C6.89633 0.782517 7.25623 0.754755 7.6117 0.754755C7.69316 0.754755 7.77388 0.756216 7.85459 0.759138C9.55416 0.819044 11.1338 1.50432 12.3202 2.61843C12.3891 2.68491 12.4831 2.72582 12.5875 2.72582C12.7964 2.72582 12.9667 2.55925 12.9697 2.35396V0.379163C12.9697 0.170948 12.7986 0.00219527 12.5875 0.00219527C12.3765 0.00219527 12.2054 0.170955 12.2054 0.379163V1.532C10.9754 0.610027 9.46824 0.0606406 7.87992 0.0043834C7.79031 0.00146113 7.69998 7.45549e-05 7.60962 7.45549e-05Z" fill="#0A1123"/>
</svg>
