<svg width="19" height="15" viewBox="0 0 19 15" fill="none" xmlns="http://www.w3.org/2000/svg">
<path d="M6.69671 7.73153C4.57332 7.73153 2.83105 5.98921 2.83105 3.86577C2.83105 1.74232 4.57332 0 6.69671 0C8.82009 0 10.5624 1.74232 10.5624 3.86577C10.5624 5.98921 8.82009 7.73153 6.69671 7.73153ZM6.69671 0.816711C5.00889 0.816711 3.64774 2.1779 3.64774 3.86577C3.64774 5.55364 5.00889 6.91482 6.69671 6.91482C8.38453 6.91482 9.74567 5.55364 9.74567 3.86577C9.74567 2.1779 8.38453 0.816711 6.69671 0.816711Z" fill="#0A1123"/>
<path d="M13.3937 15H12.577C12.577 11.7604 9.93636 9.11969 6.69683 9.11969C3.45731 9.11969 0.816687 11.7604 0.816687 15H0C0 11.2976 2.99452 8.30298 6.69683 8.30298C10.3991 8.30298 13.3937 11.2976 13.3937 15Z" fill="#0A1123"/>
<path d="M14.9729 6.28844C13.6662 6.28844 12.6045 5.22671 12.6045 3.91998C12.6045 2.61324 13.6662 1.55151 14.9729 1.55151C16.2796 1.55151 17.3413 2.61324 17.3413 3.91998C17.3413 5.22671 16.2796 6.28844 14.9729 6.28844ZM14.9729 2.36822C14.129 2.36822 13.4212 3.07604 13.4212 3.91998C13.4212 4.76391 14.129 5.47173 14.9729 5.47173C15.8168 5.47173 16.5246 4.76391 16.5246 3.91998C16.5246 3.04882 15.8168 2.36822 14.9729 2.36822Z" fill="#0A1123"/>
<path d="M18.9471 10.6719H18.1304C18.1304 8.92961 16.7149 7.51398 14.9726 7.51398C13.2303 7.51398 11.8147 8.92961 11.8147 10.6719H10.998C10.998 8.49403 12.7675 6.69727 14.9726 6.69727C17.1776 6.69727 18.9471 8.49403 18.9471 10.6719Z" fill="#0A1123"/>
</svg>
