<svg width="1536" height="1664" viewBox="0 0 1536 1664" fill="none" xmlns="http://www.w3.org/2000/svg">
<g clip-path="url(#clip0_2554_88)">
<rect width="1536" height="1664" fill="white"/>
<g filter="url(#filter0_f_2554_88)">
<path d="M56 145.334L1 1.85532L1536 0L1492 90.9108L1382 71.1207C1376.83 108.433 1365.2 188.253 1360 209.033C1353.5 235.008 1361.5 296.233 1360 316.023C1358.5 335.813 1350.5 391.473 1347 401.987C1343.5 412.5 1307.5 448.988 1239 476.199C1170.5 503.411 1112 485.476 1102.5 485.476H1014.5C1005 485.476 965.5 541.136 959.5 541.136C954.7 541.136 932.833 603.804 922.5 635.139C902.167 649.775 857.8 681.151 843 689.562C824.5 700.075 781 692.654 774.5 689.562C768 686.469 697.5 621.533 691.5 614.112C685.5 606.69 644 556.597 634 541.136C624 525.675 498.5 448.988 488.5 448.988C478.5 448.988 358 440.33 350.5 437.238C344.5 434.764 253.667 421.777 209 415.592C177.167 384.876 112.8 321.96 110 316.023C107.2 310.086 72.8333 199.756 56 145.334Z" fill="#7F77FF"/>
<path d="M1014.5 485.476C1005 485.476 965.5 541.136 959.5 541.136C954.7 541.136 932.833 603.804 922.5 635.139C902.167 649.775 857.8 681.151 843 689.562C824.5 700.075 781 692.654 774.5 689.562C768 686.469 697.5 621.533 691.5 614.112C685.5 606.69 644 556.597 634 541.136C624 525.675 498.5 448.988 488.5 448.988C478.5 448.988 358 440.33 350.5 437.238C344.5 434.764 253.667 421.777 209 415.592C177.167 384.876 112.8 321.96 110 316.023C107.2 310.086 72.8333 199.756 56 145.334L1 1.85532L1536 0L1492 90.9108L1382 71.1207C1376.83 108.433 1365.2 188.253 1360 209.033C1353.5 235.008 1361.5 296.233 1360 316.023C1358.5 335.813 1350.5 391.473 1347 401.987C1343.5 412.5 1307.5 448.988 1239 476.199C1170.5 503.411 1112 485.476 1102.5 485.476M1014.5 485.476C1024 485.476 1093 485.476 1102.5 485.476M1014.5 485.476H1102.5" stroke="black"/>
</g>
<g filter="url(#filter1_f_2554_88)">
<path d="M56 83.6452L1 1.06781L1536 0L1492 52.3228L1382 40.9328C1376.83 62.4077 1365.2 108.347 1360 120.307C1353.5 135.256 1361.5 170.494 1360 181.884C1358.5 193.274 1350.5 225.308 1347 231.359C1343.5 237.41 1307.5 258.41 1239 274.072C1170.5 289.733 1112 279.411 1102.5 279.411H1014.5C1005 279.411 965.5 311.445 959.5 311.445C954.7 311.445 932.833 347.513 922.5 365.547C902.167 373.971 857.8 392.029 843 396.87C824.5 402.921 781 398.65 774.5 396.87C768 395.09 697.5 357.717 691.5 353.446C685.5 349.174 644 320.343 634 311.445C624 302.547 498.5 258.41 488.5 258.41C478.5 258.41 358 253.427 350.5 251.648C344.5 250.224 253.667 242.749 209 239.19C177.167 221.512 112.8 185.301 110 181.884C107.2 178.467 72.8333 114.968 56 83.6452Z" fill="#CDCAFF"/>
<path d="M1014.5 279.411C1005 279.411 965.5 311.445 959.5 311.445C954.7 311.445 932.833 347.513 922.5 365.547C902.167 373.971 857.8 392.029 843 396.87C824.5 402.921 781 398.65 774.5 396.87C768 395.09 697.5 357.717 691.5 353.446C685.5 349.174 644 320.343 634 311.445C624 302.547 498.5 258.41 488.5 258.41C478.5 258.41 358 253.427 350.5 251.648C344.5 250.224 253.667 242.749 209 239.19C177.167 221.512 112.8 185.301 110 181.884C107.2 178.467 72.8333 114.968 56 83.6452L1 1.06781L1536 0L1492 52.3228L1382 40.9328C1376.83 62.4077 1365.2 108.347 1360 120.307C1353.5 135.256 1361.5 170.494 1360 181.884C1358.5 193.274 1350.5 225.308 1347 231.359C1343.5 237.41 1307.5 258.41 1239 274.072C1170.5 289.733 1112 279.411 1102.5 279.411M1014.5 279.411C1024 279.411 1093 279.411 1102.5 279.411M1014.5 279.411H1102.5" stroke="black"/>
</g>
<g filter="url(#filter2_f_2554_88)">
<path d="M56 36.5948L1 0.467168L1536 0L1492 22.8912L1382 17.9081C1376.83 27.3033 1365.2 47.4019 1360 52.6342C1353.5 59.1746 1361.5 74.5911 1360 79.5742C1358.5 84.5573 1350.5 98.5723 1347 101.22C1343.5 103.867 1307.5 113.055 1239 119.906C1170.5 126.758 1112 122.242 1102.5 122.242H1014.5C1005 122.242 965.5 136.257 959.5 136.257C954.7 136.257 932.833 152.037 922.5 159.927C902.167 163.612 857.8 171.513 843 173.631C824.5 176.278 781 174.409 774.5 173.631C768 172.852 697.5 156.501 691.5 154.632C685.5 152.764 644 140.15 634 136.257C624 132.364 498.5 113.055 488.5 113.055C478.5 113.055 358 110.874 350.5 110.096C344.5 109.473 253.667 106.203 209 104.646C177.167 96.9113 112.8 81.0691 110 79.5742C107.2 78.0793 72.8333 50.2984 56 36.5948Z" fill="#D7D5FF"/>
<path d="M1014.5 122.242C1005 122.242 965.5 136.257 959.5 136.257C954.7 136.257 932.833 152.037 922.5 159.927C902.167 163.612 857.8 171.513 843 173.631C824.5 176.278 781 174.409 774.5 173.631C768 172.852 697.5 156.501 691.5 154.632C685.5 152.764 644 140.15 634 136.257C624 132.364 498.5 113.055 488.5 113.055C478.5 113.055 358 110.874 350.5 110.096C344.5 109.473 253.667 106.203 209 104.646C177.167 96.9113 112.8 81.0691 110 79.5742C107.2 78.0793 72.8333 50.2984 56 36.5948L1 0.467168L1536 0L1492 22.8912L1382 17.9081C1376.83 27.3033 1365.2 47.4019 1360 52.6342C1353.5 59.1746 1361.5 74.5911 1360 79.5742C1358.5 84.5573 1350.5 98.5724 1347 101.22C1343.5 103.867 1307.5 113.055 1239 119.906C1170.5 126.758 1112 122.242 1102.5 122.242M1014.5 122.242C1024 122.242 1093 122.242 1102.5 122.242M1014.5 122.242H1102.5" stroke="black"/>
</g>
<g filter="url(#filter3_f_2554_88)">
<rect x="64" y="95" width="1409" height="1526" rx="31" fill="#AEAAE9" fill-opacity="0.3"/>
</g>
</g>
<defs>
<filter id="filter0_f_2554_88" x="-199.727" y="-200.501" width="1936.52" height="1096" filterUnits="userSpaceOnUse" color-interpolation-filters="sRGB">
<feFlood flood-opacity="0" result="BackgroundImageFix"/>
<feBlend mode="normal" in="SourceGraphic" in2="BackgroundImageFix" result="shape"/>
<feGaussianBlur stdDeviation="100" result="effect1_foregroundBlur_2554_88"/>
</filter>
<filter id="filter1_f_2554_88" x="-199.933" y="-200.501" width="1937.01" height="801.001" filterUnits="userSpaceOnUse" color-interpolation-filters="sRGB">
<feFlood flood-opacity="0" result="BackgroundImageFix"/>
<feBlend mode="normal" in="SourceGraphic" in2="BackgroundImageFix" result="shape"/>
<feGaussianBlur stdDeviation="100" result="effect1_foregroundBlur_2554_88"/>
</filter>
<filter id="filter2_f_2554_88" x="-200.671" y="-200.5" width="1936.9" height="576" filterUnits="userSpaceOnUse" color-interpolation-filters="sRGB">
<feFlood flood-opacity="0" result="BackgroundImageFix"/>
<feBlend mode="normal" in="SourceGraphic" in2="BackgroundImageFix" result="shape"/>
<feGaussianBlur stdDeviation="100" result="effect1_foregroundBlur_2554_88"/>
</filter>
<filter id="filter3_f_2554_88" x="56" y="87" width="1425" height="1542" filterUnits="userSpaceOnUse" color-interpolation-filters="sRGB">
<feFlood flood-opacity="0" result="BackgroundImageFix"/>
<feBlend mode="normal" in="SourceGraphic" in2="BackgroundImageFix" result="shape"/>
<feGaussianBlur stdDeviation="4" result="effect1_foregroundBlur_2554_88"/>
</filter>
<clipPath id="clip0_2554_88">
<rect width="1536" height="1664" fill="white"/>
</clipPath>
</defs>
</svg>
