<svg width="71" height="73" viewBox="0 0 71 73" fill="none" xmlns="http://www.w3.org/2000/svg">
<path d="M70.7861 6.59756C70.6494 6.16787 70.3252 5.82022 69.9072 5.65225L55.8452 0.105354C55.0757 -0.199336 54.2007 0.179573 53.8999 0.949104C53.5952 1.71863 53.9741 2.5897 54.7437 2.8944L65.0717 6.9686C36.0207 18.8786 19.9897 35.0346 11.6027 46.6486C2.18075 59.6956 0.110653 69.8046 0.0286535 70.2306C-0.131507 71.0431 0.395844 71.8283 1.20835 71.9923C1.30601 72.0118 1.40366 72.0196 1.50132 72.0196C2.20054 72.0196 2.82942 71.5275 2.97402 70.8127C3.05215 70.4259 11.2123 32.5426 65.615 10.0006L59.0798 19.899C58.6228 20.5905 58.8142 21.5201 59.5056 21.9771C59.7595 22.1451 60.0447 22.2271 60.3298 22.2271C60.8142 22.2271 61.2947 21.9889 61.5837 21.5553L70.6149 7.88327C70.8571 7.50046 70.9228 7.0312 70.7861 6.59756Z" fill="#212121"/>
</svg>
