<svg width="7" height="7" viewBox="0 0 7 7" fill="none" xmlns="http://www.w3.org/2000/svg">
<path fill-rule="evenodd" clip-rule="evenodd" d="M3.49915 0C1.56945 0 0 1.56888 0 3.49858C0 5.42827 1.56945 7 3.49915 7C5.42884 7 7 5.42827 7 3.49858C7 1.56888 5.42884 0 3.49915 0ZM3.49915 0.583381C5.11356 0.583381 6.41662 1.88416 6.41662 3.49858C6.41662 5.11299 5.11356 6.41605 3.49915 6.41605C1.88473 6.41605 0.583381 5.11299 0.583381 3.49858C0.583381 1.88416 1.88473 0.583381 3.49915 0.583381ZM3.50148 1.79743C3.46313 1.79728 3.42512 1.80469 3.38964 1.81925C3.35416 1.83381 3.32189 1.85522 3.29469 1.88226C3.26749 1.9093 3.24589 1.94144 3.23113 1.97684C3.21637 2.01223 3.20873 2.0502 3.20865 2.08855V3.8649C3.2085 3.9034 3.21597 3.94154 3.23064 3.97714C3.2453 4.01273 3.26686 4.04507 3.29409 4.0723C3.32131 4.09952 3.35365 4.12108 3.38924 4.13575C3.42484 4.15041 3.46299 4.15788 3.50148 4.15773C3.53979 4.15758 3.57769 4.14989 3.61302 4.13509C3.64835 4.12029 3.68043 4.09868 3.70741 4.07149C3.73439 4.0443 3.75575 4.01206 3.77027 3.97661C3.78479 3.94116 3.79218 3.9032 3.79203 3.8649V2.08855C3.79188 2.01148 3.76124 1.93761 3.7068 1.88306C3.65236 1.82851 3.57855 1.79773 3.50148 1.79743ZM3.50148 4.47506C3.4495 4.47484 3.39799 4.48492 3.34992 4.50471C3.30186 4.52451 3.25819 4.55362 3.22143 4.59038C3.18467 4.62713 3.15556 4.67081 3.13576 4.71887C3.11597 4.76694 3.10589 4.81845 3.10611 4.87043C3.10658 4.97483 3.1485 5.07477 3.22264 5.14828C3.29678 5.22178 3.39708 5.26283 3.50148 5.26239C3.60529 5.26192 3.70472 5.22048 3.77812 5.14707C3.85153 5.07367 3.89297 4.97424 3.89344 4.87043C3.89388 4.76603 3.85283 4.66573 3.77933 4.59159C3.70582 4.51744 3.60588 4.47553 3.50148 4.47506Z" fill="#534DB4"/>
</svg>
