<svg width="13" height="13" viewBox="0 0 13 13" fill="none" xmlns="http://www.w3.org/2000/svg">
<path d="M9.0014 8.146C8.74423 8.45748 8.4575 8.74422 8.146 9.00139L11.9711 12.8232C12.1946 13.0522 12.5941 13.0522 12.8231 12.8232C13.0589 12.5873 13.0589 12.2036 12.8231 11.9678L9.0014 8.146Z" fill="white"/>
<path d="M10.8396 5.4233C10.8396 2.43291 8.40683 0 5.41978 0C2.43273 0 0 2.43203 0 5.4233C0 8.41035 2.43273 10.8431 5.41978 10.8431C8.40753 10.8431 10.8396 8.41035 10.8396 5.4233ZM5.41978 1.51016C5.25063 1.51016 5.11722 1.37607 5.11722 1.2076C5.11722 1.04188 5.25131 0.90504 5.41978 0.90504C7.90902 0.90504 9.93336 2.9329 9.93336 5.42196C9.93336 5.58768 9.7979 5.72452 9.6308 5.72452C9.46508 5.72452 9.32824 5.58906 9.32824 5.42196C9.32962 3.2649 7.57268 1.51016 5.41978 1.51016Z" fill="white"/>
</svg>
