<svg width="12" height="12" viewBox="0 0 12 12" fill="none" xmlns="http://www.w3.org/2000/svg">
<path d="M8.30914 7.51953C8.07176 7.80706 7.80708 8.07174 7.51953 8.30914L11.0505 11.837C11.2568 12.0484 11.6255 12.0484 11.8369 11.837C12.0546 11.6193 12.0546 11.2651 11.8369 11.0474L8.30914 7.51953Z" fill="white"/>
<path d="M10.0059 5.0062C10.0059 2.24579 7.76026 0 5.00295 0C2.24563 0 0 2.24498 0 5.0062C0 7.76351 2.24563 10.0091 5.00295 10.0091C7.76091 10.0091 10.0059 7.76351 10.0059 5.0062ZM5.00295 1.39401C4.8468 1.39401 4.72366 1.27024 4.72366 1.11472C4.72366 0.961753 4.84743 0.835433 5.00295 0.835433C7.30074 0.835433 9.16939 2.70733 9.16939 5.00496C9.16939 5.15793 9.04435 5.28425 8.8901 5.28425C8.73713 5.28425 8.61081 5.15921 8.61081 5.00496C8.61208 3.01379 6.99027 1.39401 5.00295 1.39401Z" fill="white"/>
</svg>
