<svg width="272" height="327" viewBox="0 0 272 327" fill="none" xmlns="http://www.w3.org/2000/svg">
<path d="M125.94 234.09C125.94 228.81 130.22 224.52 135.51 224.52C140.8 224.52 145.08 228.8 145.08 234.09V254.09C145.08 274.05 136.92 292.19 123.78 305.33C110.64 318.47 92.5 326.63 72.54 326.63C52.58 326.63 34.44 318.47 21.3 305.33C8.16 292.18 0 274.05 0 254.09V72.54C0 52.58 8.16 34.44 21.3 21.3C34.45 8.16 52.58 0 72.54 0C92.5 0 110.64 8.16 123.78 21.3C136.93 34.45 145.08 52.58 145.08 72.54V153.74H241.86L202.62 106.29C199.25 102.22 199.82 96.2 203.89 92.83C207.96 89.46 213.98 90.03 217.35 94.1L269.54 157.21C272.55 160.84 272.41 166.04 269.45 169.51L217.35 232.51C213.98 236.58 207.96 237.14 203.89 233.78C199.83 230.41 199.26 224.39 202.62 220.32L241.86 172.87H135.52H81.62C76.34 172.87 72.05 168.58 72.05 163.3C72.05 158.02 76.34 153.73 81.62 153.73H125.95V72.53C125.95 57.85 119.94 44.5 110.25 34.82C100.57 25.14 87.22 19.13 72.54 19.13C57.86 19.13 44.51 25.14 34.83 34.82C25.15 44.51 19.14 57.86 19.14 72.53V254.08C19.14 268.76 25.15 282.11 34.83 291.79C44.52 301.47 57.87 307.48 72.54 307.48C87.22 307.48 100.57 301.47 110.25 291.79C119.94 282.1 125.95 268.75 125.95 254.08V234.08L125.94 234.09Z" fill="white"/>
</svg>
