<svg width="8" height="8" viewBox="0 0 8 8" fill="none" xmlns="http://www.w3.org/2000/svg">
<path d="M7.76773 3.66447L5.97042 5.02699L6.65803 7.23267C6.7335 7.47775 6.65523 7.7345 6.45399 7.88621C6.35336 7.96207 6.23877 8 6.12696 8C6.01515 8 5.89776 7.96207 5.79713 7.88621L3.99982 6.52368L2.20252 7.88621C2.00406 8.03792 1.74411 8.03792 1.54565 7.88621C1.34719 7.7345 1.26614 7.47775 1.34161 7.23267L2.02922 5.02699L0.23191 3.66447C0.0334494 3.51275 -0.0476056 3.25601 0.027868 3.01093C0.103342 2.76585 0.312974 2.60831 0.558948 2.60831H2.78112L3.46873 0.402624C3.5442 0.157549 3.75383 0 3.99981 0C4.24578 0 4.45542 0.157549 4.53089 0.402624L5.21849 2.60831H7.44066C7.68664 2.60831 7.89628 2.76585 7.97174 3.01093C8.04721 3.25601 7.96898 3.51275 7.76773 3.66447Z" fill="#FFCC00"/>
</svg>
