<svg width="7" height="7" viewBox="0 0 7 7" fill="none" xmlns="http://www.w3.org/2000/svg">
<path fill-rule="evenodd" clip-rule="evenodd" d="M4.2 0.7V0.35C4.2 0.1568 4.3568 0 4.55 0C4.7432 0 4.9 0.1568 4.9 0.35V0.7C5.6735 0.7 6.3 1.32685 6.3 2.1V5.6C6.3 6.37315 5.6735 7 4.9 7C3.89935 7 2.401 7 1.4 7C0.62685 7 0 6.37315 0 5.6V2.1C0 1.32685 0.62685 0.7 1.4 0.7V0.35C1.4 0.1568 1.5568 0 1.75 0C1.9432 0 2.1 0.1568 2.1 0.35V0.7H4.2ZM5.6 3.5H0.7V5.6C0.7 5.9864 1.0136 6.3 1.4 6.3C2.401 6.3 3.89935 6.3 4.9 6.3C5.28675 6.3 5.6 5.9864 5.6 5.6V3.5ZM3.81255 4.77925L4.30605 4.29905C4.44465 4.1643 4.6662 4.16745 4.80095 4.30605C4.9357 4.4443 4.93255 4.6662 4.7943 4.80095L4.0747 5.50095C3.9459 5.6259 3.74395 5.6336 3.6064 5.5188L3.2123 5.1898C3.0639 5.06625 3.04395 4.8454 3.16785 4.697C3.2914 4.5486 3.51225 4.52865 3.66065 4.65255L3.81255 4.77925ZM4.9 1.4V1.75C4.9 1.9432 4.7432 2.1 4.55 2.1C4.3568 2.1 4.2 1.9432 4.2 1.75V1.4H2.1V1.75C2.1 1.9432 1.9432 2.1 1.75 2.1C1.5568 2.1 1.4 1.9432 1.4 1.75V1.4C1.0136 1.4 0.7 1.71325 0.7 2.1V2.8H5.6V2.1C5.6 1.71325 5.28675 1.4 4.9 1.4Z" fill="#0A1123"/>
</svg>
