<svg width="9" height="9" viewBox="0 0 9 9" fill="none" xmlns="http://www.w3.org/2000/svg">
<path d="M4.49832 9C3.62126 9.00019 2.76325 8.74407 2.0298 8.26313C1.29635 7.7822 0.719434 7.09741 0.369977 6.29297C0.349602 6.25234 0.337712 6.20798 0.335034 6.16261C0.332356 6.11723 0.338945 6.07178 0.3544 6.02904C0.369855 5.98629 0.393852 5.94714 0.424928 5.91397C0.456005 5.8808 0.49351 5.8543 0.535159 5.83609C0.576808 5.81788 0.621728 5.80835 0.667182 5.80806C0.712635 5.80778 0.757671 5.81675 0.799544 5.83444C0.841417 5.85212 0.879251 5.87815 0.910739 5.91093C0.942228 5.94371 0.966712 5.98256 0.9827 6.02511C1.35822 6.89619 2.04348 7.59703 2.90589 7.99205C3.7683 8.38706 4.74658 8.44818 5.65145 8.16356C6.55632 7.87894 7.32346 7.26883 7.80447 6.45126C8.28548 5.63368 8.44616 4.66676 8.25542 3.73756C8.06469 2.80836 7.53609 1.98292 6.77191 1.42095C6.00772 0.858977 5.06226 0.600409 4.11844 0.695272C3.17462 0.790134 2.29953 1.23168 1.66246 1.9345C1.0254 2.63731 0.671645 3.55143 0.669642 4.5C0.669642 4.5888 0.634367 4.67396 0.571576 4.73676C0.508784 4.79955 0.423621 4.83482 0.334821 4.83482C0.246021 4.83482 0.160858 4.79955 0.0980669 4.73676C0.0352757 4.67396 0 4.5888 0 4.5C6.15948e-08 3.60991 0.263963 2.73982 0.758503 1.99976C1.25304 1.2597 1.95595 0.682929 2.77831 0.342384C3.60067 0.00183879 4.50556 -0.0871784 5.37852 0.0865908C6.25148 0.26036 7.0533 0.68911 7.68257 1.31861C8.31184 1.94812 8.74029 2.7501 8.91373 3.62312C9.08718 4.49615 8.99782 5.401 8.65697 6.22324C8.31612 7.04547 7.73908 7.74816 6.99884 8.24243C6.2586 8.73669 5.38841 9.00033 4.49832 9Z" fill="white"/>
<path d="M3.24798 6.76015C3.21877 6.75946 3.19012 6.75201 3.16427 6.73839C3.13873 6.72364 3.11753 6.7024 3.10283 6.67682C3.08813 6.65125 3.08045 6.62224 3.08057 6.59274V5.50457C3.08057 5.46017 3.09821 5.41759 3.1296 5.38619C3.161 5.3548 3.20358 5.33716 3.24798 5.33716C3.29238 5.33716 3.33496 5.3548 3.36636 5.38619C3.39775 5.41759 3.41539 5.46017 3.41539 5.50457V6.30982L6.4405 4.55535L3.41539 2.80926V4.50011C3.41539 4.54451 3.39775 4.58709 3.36636 4.61848C3.33496 4.64988 3.29238 4.66752 3.24798 4.66752C3.20358 4.66752 3.161 4.64988 3.1296 4.61848C3.09821 4.58709 3.08057 4.54451 3.08057 4.50011V2.51964C3.08045 2.49014 3.08813 2.46113 3.10283 2.43556C3.11753 2.40998 3.13873 2.38874 3.16427 2.37399C3.18972 2.3593 3.21859 2.35156 3.24798 2.35156C3.27737 2.35156 3.30623 2.3593 3.33168 2.37399L6.85902 4.41138C6.88439 4.4261 6.90545 4.44722 6.92009 4.47263C6.93473 4.49805 6.94243 4.52686 6.94243 4.55619C6.94243 4.58552 6.93473 4.61433 6.92009 4.63975C6.90545 4.66516 6.88439 4.68628 6.85902 4.701L3.32666 6.73839C3.30248 6.75166 3.27554 6.75911 3.24798 6.76015Z" fill="white"/>
<path d="M0.424316 5.67969C0.612007 5.67969 0.76416 5.52753 0.76416 5.33984C0.76416 5.15215 0.612007 5 0.424316 5C0.236626 5 0.0844727 5.15215 0.0844727 5.33984C0.0844727 5.52753 0.236626 5.67969 0.424316 5.67969Z" fill="white"/>
<path d="M3.253 5.18813C3.34823 5.18813 3.42543 5.11093 3.42543 5.0157C3.42543 4.92046 3.34823 4.84326 3.253 4.84326C3.15777 4.84326 3.08057 4.92046 3.08057 5.0157C3.08057 5.11093 3.15777 5.18813 3.253 5.18813Z" fill="white"/>
</svg>
