<svg width="7" height="8" viewBox="0 0 7 8" fill="none" xmlns="http://www.w3.org/2000/svg">
<mask id="path-1-outside-1_2254_104" maskUnits="userSpaceOnUse" x="-0.799805" y="-0.800049" width="8" height="9" fill="black">
<rect fill="white" x="-0.799805" y="-0.800049" width="8" height="9"/>
<path d="M5.20909 2.96856C5.20909 1.94557 4.30755 1.11385 3.19972 1.11385C2.09143 1.11385 1.19036 1.946 1.19036 2.96856C1.19036 3.99155 2.0919 4.82327 3.19972 4.82327C4.30802 4.82327 5.20909 3.99112 5.20909 2.96856ZM3.19972 4.62935C2.20764 4.62935 1.40046 3.88434 1.40046 2.96856C1.40046 2.05283 2.20759 1.30778 3.19972 1.30778C4.19186 1.30778 4.99899 2.05278 4.99899 2.96856C4.99899 3.88429 4.19186 4.62935 3.19972 4.62935ZM5.23425 4.7585C5.288 4.72007 5.35288 4.6861 5.42066 4.65035C5.56107 4.57661 5.70633 4.50019 5.79058 4.367C5.87531 4.23382 5.87676 4.0783 5.8787 3.92813C5.87967 3.82981 5.88064 3.73685 5.90436 3.6573C5.9276 3.57998 5.9765 3.49999 6.02831 3.41552C6.11304 3.27787 6.2002 3.13575 6.2002 2.96905C6.2002 2.8028 6.11304 2.66023 6.02831 2.52259C5.9765 2.43812 5.92712 2.35812 5.90436 2.2808C5.88064 2.20125 5.87967 2.10829 5.8787 2.00997C5.87725 1.85981 5.87531 1.70428 5.79058 1.5711C5.70585 1.43792 5.56059 1.3615 5.42066 1.28775C5.33012 1.23993 5.24393 1.19479 5.18341 1.13848C5.1224 1.08217 5.0735 1.00306 5.02169 0.919488C4.9418 0.789883 4.859 0.655806 4.71471 0.578041C4.57042 0.500277 4.40193 0.49849 4.23925 0.496702C4.13273 0.495808 4.03202 0.494914 3.94583 0.473015C3.86207 0.451563 3.7754 0.406425 3.68389 0.358604C3.53476 0.280394 3.38079 0.199951 3.2002 0.199951C3.02008 0.199951 2.86563 0.280396 2.7165 0.358604C2.62499 0.406425 2.53832 0.45201 2.45456 0.473015C2.36837 0.494914 2.26766 0.495808 2.16114 0.496702C1.99846 0.498042 1.82996 0.49983 1.68568 0.578041C1.54139 0.656251 1.4586 0.79033 1.3787 0.919488C1.32689 1.00306 1.27799 1.08261 1.21698 1.13848C1.15598 1.19479 1.07028 1.23993 0.97973 1.28775C0.839318 1.36149 0.694061 1.43792 0.609812 1.5711C0.525563 1.70429 0.523627 1.85981 0.52169 2.00997C0.520722 2.10829 0.519753 2.20125 0.496028 2.2808C0.472788 2.35812 0.423885 2.43812 0.372078 2.52259C0.287346 2.66023 0.200195 2.80236 0.200195 2.96905C0.200195 3.1353 0.287347 3.27787 0.372078 3.41552C0.423885 3.49998 0.473272 3.57998 0.496028 3.65775C0.519754 3.7373 0.520722 3.83026 0.52169 3.92858C0.523142 4.07874 0.525079 4.23427 0.609812 4.36745C0.694543 4.50063 0.839802 4.57705 0.97973 4.6508C1.04752 4.68655 1.11239 4.72052 1.16614 4.75895L0.219082 6.2726C0.198262 6.30568 0.200682 6.34679 0.224408 6.37763C0.248617 6.40847 0.289772 6.42366 0.330444 6.41651L1.34384 6.23149L1.67696 7.13425C1.69052 7.17045 1.72538 7.19593 1.76605 7.1995C1.76944 7.19995 1.77283 7.19995 1.77621 7.19995C1.8135 7.19995 1.84836 7.18163 1.86724 7.15124L2.8177 5.63221C2.93584 5.69031 3.06027 5.73902 3.19971 5.73902C3.33964 5.73902 3.46359 5.69031 3.58221 5.63221L4.53267 7.15124C4.55155 7.18163 4.58641 7.19995 4.62369 7.19995C4.62708 7.19995 4.63047 7.19995 4.63386 7.1995C4.67501 7.19593 4.70988 7.17045 4.72295 7.13425L5.05607 6.23149L6.06946 6.41651C6.11013 6.42366 6.15129 6.40891 6.1755 6.37763C6.19971 6.34679 6.20165 6.30568 6.18083 6.2726L5.23425 4.75895V4.7585ZM1.80094 6.86835L1.51285 6.08759C1.49833 6.04781 1.45766 6.02189 1.41311 6.02189C1.40633 6.02189 1.39955 6.02234 1.39278 6.02368L0.516408 6.18367L1.31096 4.91349C1.31193 4.91483 1.31241 4.91617 1.31338 4.91706C1.32355 4.93226 1.33371 4.94745 1.34388 4.96354C1.34485 4.96488 1.34582 4.96667 1.34679 4.96801C1.35695 4.98455 1.36761 5.00108 1.37777 5.01806C1.45766 5.14767 1.54046 5.28175 1.68475 5.35951C1.82904 5.43772 1.99753 5.43906 2.16021 5.44085C2.17377 5.44085 2.18684 5.4413 2.19992 5.4413C2.29191 5.44264 2.37809 5.44577 2.45363 5.46498C2.4667 5.46856 2.48026 5.47258 2.49382 5.47705C2.49721 5.47839 2.5006 5.47929 2.50399 5.48063C2.51512 5.48465 2.52626 5.48867 2.53739 5.49314C2.53981 5.49403 2.54224 5.49493 2.54466 5.49582C2.55821 5.50163 2.57226 5.50744 2.5863 5.51415C2.58823 5.51504 2.58969 5.51593 2.59162 5.51683C2.60421 5.52264 2.6168 5.52889 2.62987 5.53515C2.63132 5.5356 2.63229 5.53649 2.63375 5.53694L1.80095 6.86788L1.80094 6.86835ZM2.82015 5.41099C2.72138 5.35915 2.61921 5.30596 2.51027 5.27825C2.39746 5.24965 2.27835 5.24831 2.16311 5.24741C2.02173 5.24607 1.88761 5.24473 1.79174 5.19289C1.77964 5.18663 1.76802 5.17904 1.75737 5.17099C1.6799 5.11423 1.62179 5.02083 1.56128 4.9225C1.5482 4.9015 1.53513 4.88004 1.52157 4.85859C1.52109 4.8577 1.52061 4.8568 1.52012 4.85591C1.50705 4.83535 1.49349 4.81479 1.47945 4.79468C1.47848 4.7929 1.47751 4.79155 1.47606 4.78977C1.46202 4.7701 1.44798 4.75133 1.43249 4.73301C1.43103 4.73077 1.4291 4.72899 1.42764 4.72675C1.41263 4.70888 1.39666 4.69145 1.38019 4.67536C1.37874 4.67402 1.37777 4.67223 1.37632 4.67089C1.37584 4.67044 1.37487 4.66999 1.37438 4.66955C1.37148 4.66686 1.36906 4.66418 1.36615 4.6615C1.28529 4.58687 1.18313 4.53279 1.08436 4.48095C0.962833 4.41704 0.847593 4.35627 0.791431 4.26777C0.735266 4.17928 0.733813 4.05593 0.732361 3.92498C0.731392 3.81862 0.72994 3.70868 0.698952 3.60454C0.668933 3.50398 0.610831 3.40969 0.555145 3.31807C0.480581 3.19695 0.410853 3.08299 0.410853 2.96769C0.410853 2.85238 0.48106 2.73797 0.555145 2.6173C0.61131 2.52613 0.668928 2.43183 0.698952 2.33128C0.72994 2.22714 0.731392 2.1172 0.732361 2.01084C0.733813 1.88034 0.735266 1.75698 0.791431 1.66805C0.847596 1.57956 0.962346 1.51922 1.08436 1.45531C1.18314 1.40347 1.2853 1.3494 1.36615 1.27476C1.44701 1.20013 1.5056 1.10582 1.56176 1.01466C1.631 0.902485 1.69684 0.796115 1.79223 0.744275C1.8881 0.692433 2.02174 0.691092 2.1636 0.689752C2.27884 0.688858 2.39794 0.687517 2.51076 0.658915C2.6197 0.631205 2.72186 0.577575 2.82064 0.526175C2.95185 0.45735 3.0758 0.392543 3.20024 0.392543C3.32516 0.392543 3.44911 0.457347 3.57984 0.526175C3.67861 0.578017 3.78077 0.631201 3.88971 0.658915C4.00253 0.687517 4.12164 0.688858 4.23688 0.689752C4.37825 0.691092 4.51238 0.692433 4.60824 0.744275C4.70411 0.796117 4.76948 0.902036 4.8392 1.01466C4.89537 1.10583 4.95395 1.20013 5.03481 1.27476C5.11567 1.3494 5.21783 1.40348 5.3166 1.45531C5.43813 1.51922 5.55337 1.57955 5.60953 1.66805C5.66569 1.75655 5.66715 1.87989 5.6686 2.01084C5.66957 2.1172 5.67102 2.22714 5.70201 2.33128C5.73203 2.43183 5.79013 2.52613 5.84582 2.6173C5.9199 2.73842 5.99011 2.85283 5.99011 2.96769C5.99011 3.08299 5.9199 3.1974 5.84582 3.31807C5.78965 3.40924 5.73203 3.50354 5.70201 3.6041C5.67102 3.70823 5.66957 3.81817 5.6686 3.92454C5.66715 4.05503 5.6657 4.17839 5.60953 4.26732C5.55337 4.35581 5.43862 4.41615 5.3166 4.48006C5.21782 4.5319 5.11566 4.58598 5.03481 4.66061C5.0319 4.66329 5.02948 4.66597 5.02658 4.66865C5.02609 4.6691 5.02513 4.66955 5.02464 4.66999C5.02319 4.67134 5.02222 4.67312 5.02077 4.67446C5.00382 4.691 4.98833 4.70798 4.97332 4.72586C4.97138 4.72809 4.96993 4.72988 4.96848 4.73212C4.95347 4.75044 4.93894 4.76966 4.9249 4.78887C4.92393 4.79066 4.92248 4.792 4.92151 4.79379C4.90747 4.8139 4.89391 4.83446 4.88084 4.85502C4.88036 4.85547 4.88036 4.85591 4.87987 4.85636C4.86631 4.87781 4.85276 4.89971 4.8392 4.92116C4.76996 5.03334 4.70412 5.13971 4.60824 5.19155C4.51237 5.24339 4.37874 5.24473 4.23687 5.24607C4.20782 5.24652 4.17877 5.24652 4.14972 5.24741C4.06208 5.24965 3.97396 5.25546 3.88971 5.27691C3.88051 5.27914 3.87131 5.28227 3.86211 5.28495C3.76334 5.314 3.66989 5.36272 3.57984 5.4101C3.44862 5.47892 3.32467 5.54373 3.20024 5.54373C3.07532 5.54373 2.95137 5.47892 2.82064 5.4101L2.82015 5.41099ZM5.00676 6.02416C4.95544 6.01478 4.90363 6.04204 4.88669 6.08807L4.5986 6.86883L3.7658 5.53789C3.76725 5.537 3.76871 5.53655 3.76967 5.53566C3.78226 5.5294 3.79485 5.52359 3.80696 5.51778C3.80889 5.51689 3.81083 5.51599 3.81277 5.5151C3.82681 5.50884 3.84037 5.50258 3.85441 5.49678C3.85683 5.49588 3.85925 5.49499 3.86167 5.49365C3.87281 5.48918 3.88394 5.48516 3.89508 5.48113C3.89847 5.47979 3.90186 5.4789 3.90525 5.47756C3.9188 5.47309 3.93187 5.46907 3.94495 5.46549C4.03113 5.44359 4.13184 5.4427 4.23836 5.4418C4.27903 5.44136 4.32019 5.44091 4.36086 5.43957C4.48384 5.43465 4.60538 5.41946 4.71384 5.36091C4.74144 5.34572 4.76613 5.32829 4.78985 5.30952C4.88911 5.23086 4.95642 5.1236 5.02081 5.01902C5.03049 5.00293 5.04066 4.98729 5.05035 4.97164C5.05228 4.96896 5.05373 4.96628 5.05567 4.9636C5.06535 4.94796 5.07552 4.93321 5.08521 4.91846C5.08617 4.91712 5.08714 4.91578 5.08811 4.91444L5.88266 6.18463L5.00629 6.02463L5.00676 6.02416Z"/>
</mask>
<path d="M5.20909 2.96856C5.20909 1.94557 4.30755 1.11385 3.19972 1.11385C2.09143 1.11385 1.19036 1.946 1.19036 2.96856C1.19036 3.99155 2.0919 4.82327 3.19972 4.82327C4.30802 4.82327 5.20909 3.99112 5.20909 2.96856ZM3.19972 4.62935C2.20764 4.62935 1.40046 3.88434 1.40046 2.96856C1.40046 2.05283 2.20759 1.30778 3.19972 1.30778C4.19186 1.30778 4.99899 2.05278 4.99899 2.96856C4.99899 3.88429 4.19186 4.62935 3.19972 4.62935ZM5.23425 4.7585C5.288 4.72007 5.35288 4.6861 5.42066 4.65035C5.56107 4.57661 5.70633 4.50019 5.79058 4.367C5.87531 4.23382 5.87676 4.0783 5.8787 3.92813C5.87967 3.82981 5.88064 3.73685 5.90436 3.6573C5.9276 3.57998 5.9765 3.49999 6.02831 3.41552C6.11304 3.27787 6.2002 3.13575 6.2002 2.96905C6.2002 2.8028 6.11304 2.66023 6.02831 2.52259C5.9765 2.43812 5.92712 2.35812 5.90436 2.2808C5.88064 2.20125 5.87967 2.10829 5.8787 2.00997C5.87725 1.85981 5.87531 1.70428 5.79058 1.5711C5.70585 1.43792 5.56059 1.3615 5.42066 1.28775C5.33012 1.23993 5.24393 1.19479 5.18341 1.13848C5.1224 1.08217 5.0735 1.00306 5.02169 0.919488C4.9418 0.789883 4.859 0.655806 4.71471 0.578041C4.57042 0.500277 4.40193 0.49849 4.23925 0.496702C4.13273 0.495808 4.03202 0.494914 3.94583 0.473015C3.86207 0.451563 3.7754 0.406425 3.68389 0.358604C3.53476 0.280394 3.38079 0.199951 3.2002 0.199951C3.02008 0.199951 2.86563 0.280396 2.7165 0.358604C2.62499 0.406425 2.53832 0.45201 2.45456 0.473015C2.36837 0.494914 2.26766 0.495808 2.16114 0.496702C1.99846 0.498042 1.82996 0.49983 1.68568 0.578041C1.54139 0.656251 1.4586 0.79033 1.3787 0.919488C1.32689 1.00306 1.27799 1.08261 1.21698 1.13848C1.15598 1.19479 1.07028 1.23993 0.97973 1.28775C0.839318 1.36149 0.694061 1.43792 0.609812 1.5711C0.525563 1.70429 0.523627 1.85981 0.52169 2.00997C0.520722 2.10829 0.519753 2.20125 0.496028 2.2808C0.472788 2.35812 0.423885 2.43812 0.372078 2.52259C0.287346 2.66023 0.200195 2.80236 0.200195 2.96905C0.200195 3.1353 0.287347 3.27787 0.372078 3.41552C0.423885 3.49998 0.473272 3.57998 0.496028 3.65775C0.519754 3.7373 0.520722 3.83026 0.52169 3.92858C0.523142 4.07874 0.525079 4.23427 0.609812 4.36745C0.694543 4.50063 0.839802 4.57705 0.97973 4.6508C1.04752 4.68655 1.11239 4.72052 1.16614 4.75895L0.219082 6.2726C0.198262 6.30568 0.200682 6.34679 0.224408 6.37763C0.248617 6.40847 0.289772 6.42366 0.330444 6.41651L1.34384 6.23149L1.67696 7.13425C1.69052 7.17045 1.72538 7.19593 1.76605 7.1995C1.76944 7.19995 1.77283 7.19995 1.77621 7.19995C1.8135 7.19995 1.84836 7.18163 1.86724 7.15124L2.8177 5.63221C2.93584 5.69031 3.06027 5.73902 3.19971 5.73902C3.33964 5.73902 3.46359 5.69031 3.58221 5.63221L4.53267 7.15124C4.55155 7.18163 4.58641 7.19995 4.62369 7.19995C4.62708 7.19995 4.63047 7.19995 4.63386 7.1995C4.67501 7.19593 4.70988 7.17045 4.72295 7.13425L5.05607 6.23149L6.06946 6.41651C6.11013 6.42366 6.15129 6.40891 6.1755 6.37763C6.19971 6.34679 6.20165 6.30568 6.18083 6.2726L5.23425 4.75895V4.7585ZM1.80094 6.86835L1.51285 6.08759C1.49833 6.04781 1.45766 6.02189 1.41311 6.02189C1.40633 6.02189 1.39955 6.02234 1.39278 6.02368L0.516408 6.18367L1.31096 4.91349C1.31193 4.91483 1.31241 4.91617 1.31338 4.91706C1.32355 4.93226 1.33371 4.94745 1.34388 4.96354C1.34485 4.96488 1.34582 4.96667 1.34679 4.96801C1.35695 4.98455 1.36761 5.00108 1.37777 5.01806C1.45766 5.14767 1.54046 5.28175 1.68475 5.35951C1.82904 5.43772 1.99753 5.43906 2.16021 5.44085C2.17377 5.44085 2.18684 5.4413 2.19992 5.4413C2.29191 5.44264 2.37809 5.44577 2.45363 5.46498C2.4667 5.46856 2.48026 5.47258 2.49382 5.47705C2.49721 5.47839 2.5006 5.47929 2.50399 5.48063C2.51512 5.48465 2.52626 5.48867 2.53739 5.49314C2.53981 5.49403 2.54224 5.49493 2.54466 5.49582C2.55821 5.50163 2.57226 5.50744 2.5863 5.51415C2.58823 5.51504 2.58969 5.51593 2.59162 5.51683C2.60421 5.52264 2.6168 5.52889 2.62987 5.53515C2.63132 5.5356 2.63229 5.53649 2.63375 5.53694L1.80095 6.86788L1.80094 6.86835ZM2.82015 5.41099C2.72138 5.35915 2.61921 5.30596 2.51027 5.27825C2.39746 5.24965 2.27835 5.24831 2.16311 5.24741C2.02173 5.24607 1.88761 5.24473 1.79174 5.19289C1.77964 5.18663 1.76802 5.17904 1.75737 5.17099C1.6799 5.11423 1.62179 5.02083 1.56128 4.9225C1.5482 4.9015 1.53513 4.88004 1.52157 4.85859C1.52109 4.8577 1.52061 4.8568 1.52012 4.85591C1.50705 4.83535 1.49349 4.81479 1.47945 4.79468C1.47848 4.7929 1.47751 4.79155 1.47606 4.78977C1.46202 4.7701 1.44798 4.75133 1.43249 4.73301C1.43103 4.73077 1.4291 4.72899 1.42764 4.72675C1.41263 4.70888 1.39666 4.69145 1.38019 4.67536C1.37874 4.67402 1.37777 4.67223 1.37632 4.67089C1.37584 4.67044 1.37487 4.66999 1.37438 4.66955C1.37148 4.66686 1.36906 4.66418 1.36615 4.6615C1.28529 4.58687 1.18313 4.53279 1.08436 4.48095C0.962833 4.41704 0.847593 4.35627 0.791431 4.26777C0.735266 4.17928 0.733813 4.05593 0.732361 3.92498C0.731392 3.81862 0.72994 3.70868 0.698952 3.60454C0.668933 3.50398 0.610831 3.40969 0.555145 3.31807C0.480581 3.19695 0.410853 3.08299 0.410853 2.96769C0.410853 2.85238 0.48106 2.73797 0.555145 2.6173C0.61131 2.52613 0.668928 2.43183 0.698952 2.33128C0.72994 2.22714 0.731392 2.1172 0.732361 2.01084C0.733813 1.88034 0.735266 1.75698 0.791431 1.66805C0.847596 1.57956 0.962346 1.51922 1.08436 1.45531C1.18314 1.40347 1.2853 1.3494 1.36615 1.27476C1.44701 1.20013 1.5056 1.10582 1.56176 1.01466C1.631 0.902485 1.69684 0.796115 1.79223 0.744275C1.8881 0.692433 2.02174 0.691092 2.1636 0.689752C2.27884 0.688858 2.39794 0.687517 2.51076 0.658915C2.6197 0.631205 2.72186 0.577575 2.82064 0.526175C2.95185 0.45735 3.0758 0.392543 3.20024 0.392543C3.32516 0.392543 3.44911 0.457347 3.57984 0.526175C3.67861 0.578017 3.78077 0.631201 3.88971 0.658915C4.00253 0.687517 4.12164 0.688858 4.23688 0.689752C4.37825 0.691092 4.51238 0.692433 4.60824 0.744275C4.70411 0.796117 4.76948 0.902036 4.8392 1.01466C4.89537 1.10583 4.95395 1.20013 5.03481 1.27476C5.11567 1.3494 5.21783 1.40348 5.3166 1.45531C5.43813 1.51922 5.55337 1.57955 5.60953 1.66805C5.66569 1.75655 5.66715 1.87989 5.6686 2.01084C5.66957 2.1172 5.67102 2.22714 5.70201 2.33128C5.73203 2.43183 5.79013 2.52613 5.84582 2.6173C5.9199 2.73842 5.99011 2.85283 5.99011 2.96769C5.99011 3.08299 5.9199 3.1974 5.84582 3.31807C5.78965 3.40924 5.73203 3.50354 5.70201 3.6041C5.67102 3.70823 5.66957 3.81817 5.6686 3.92454C5.66715 4.05503 5.6657 4.17839 5.60953 4.26732C5.55337 4.35581 5.43862 4.41615 5.3166 4.48006C5.21782 4.5319 5.11566 4.58598 5.03481 4.66061C5.0319 4.66329 5.02948 4.66597 5.02658 4.66865C5.02609 4.6691 5.02513 4.66955 5.02464 4.66999C5.02319 4.67134 5.02222 4.67312 5.02077 4.67446C5.00382 4.691 4.98833 4.70798 4.97332 4.72586C4.97138 4.72809 4.96993 4.72988 4.96848 4.73212C4.95347 4.75044 4.93894 4.76966 4.9249 4.78887C4.92393 4.79066 4.92248 4.792 4.92151 4.79379C4.90747 4.8139 4.89391 4.83446 4.88084 4.85502C4.88036 4.85547 4.88036 4.85591 4.87987 4.85636C4.86631 4.87781 4.85276 4.89971 4.8392 4.92116C4.76996 5.03334 4.70412 5.13971 4.60824 5.19155C4.51237 5.24339 4.37874 5.24473 4.23687 5.24607C4.20782 5.24652 4.17877 5.24652 4.14972 5.24741C4.06208 5.24965 3.97396 5.25546 3.88971 5.27691C3.88051 5.27914 3.87131 5.28227 3.86211 5.28495C3.76334 5.314 3.66989 5.36272 3.57984 5.4101C3.44862 5.47892 3.32467 5.54373 3.20024 5.54373C3.07532 5.54373 2.95137 5.47892 2.82064 5.4101L2.82015 5.41099ZM5.00676 6.02416C4.95544 6.01478 4.90363 6.04204 4.88669 6.08807L4.5986 6.86883L3.7658 5.53789C3.76725 5.537 3.76871 5.53655 3.76967 5.53566C3.78226 5.5294 3.79485 5.52359 3.80696 5.51778C3.80889 5.51689 3.81083 5.51599 3.81277 5.5151C3.82681 5.50884 3.84037 5.50258 3.85441 5.49678C3.85683 5.49588 3.85925 5.49499 3.86167 5.49365C3.87281 5.48918 3.88394 5.48516 3.89508 5.48113C3.89847 5.47979 3.90186 5.4789 3.90525 5.47756C3.9188 5.47309 3.93187 5.46907 3.94495 5.46549C4.03113 5.44359 4.13184 5.4427 4.23836 5.4418C4.27903 5.44136 4.32019 5.44091 4.36086 5.43957C4.48384 5.43465 4.60538 5.41946 4.71384 5.36091C4.74144 5.34572 4.76613 5.32829 4.78985 5.30952C4.88911 5.23086 4.95642 5.1236 5.02081 5.01902C5.03049 5.00293 5.04066 4.98729 5.05035 4.97164C5.05228 4.96896 5.05373 4.96628 5.05567 4.9636C5.06535 4.94796 5.07552 4.93321 5.08521 4.91846C5.08617 4.91712 5.08714 4.91578 5.08811 4.91444L5.88266 6.18463L5.00629 6.02463L5.00676 6.02416Z" fill="#0A1123"/>
<path d="M5.20909 2.96856C5.20909 1.94557 4.30755 1.11385 3.19972 1.11385C2.09143 1.11385 1.19036 1.946 1.19036 2.96856C1.19036 3.99155 2.0919 4.82327 3.19972 4.82327C4.30802 4.82327 5.20909 3.99112 5.20909 2.96856ZM3.19972 4.62935C2.20764 4.62935 1.40046 3.88434 1.40046 2.96856C1.40046 2.05283 2.20759 1.30778 3.19972 1.30778C4.19186 1.30778 4.99899 2.05278 4.99899 2.96856C4.99899 3.88429 4.19186 4.62935 3.19972 4.62935ZM5.23425 4.7585C5.288 4.72007 5.35288 4.6861 5.42066 4.65035C5.56107 4.57661 5.70633 4.50019 5.79058 4.367C5.87531 4.23382 5.87676 4.0783 5.8787 3.92813C5.87967 3.82981 5.88064 3.73685 5.90436 3.6573C5.9276 3.57998 5.9765 3.49999 6.02831 3.41552C6.11304 3.27787 6.2002 3.13575 6.2002 2.96905C6.2002 2.8028 6.11304 2.66023 6.02831 2.52259C5.9765 2.43812 5.92712 2.35812 5.90436 2.2808C5.88064 2.20125 5.87967 2.10829 5.8787 2.00997C5.87725 1.85981 5.87531 1.70428 5.79058 1.5711C5.70585 1.43792 5.56059 1.3615 5.42066 1.28775C5.33012 1.23993 5.24393 1.19479 5.18341 1.13848C5.1224 1.08217 5.0735 1.00306 5.02169 0.919488C4.9418 0.789883 4.859 0.655806 4.71471 0.578041C4.57042 0.500277 4.40193 0.49849 4.23925 0.496702C4.13273 0.495808 4.03202 0.494914 3.94583 0.473015C3.86207 0.451563 3.7754 0.406425 3.68389 0.358604C3.53476 0.280394 3.38079 0.199951 3.2002 0.199951C3.02008 0.199951 2.86563 0.280396 2.7165 0.358604C2.62499 0.406425 2.53832 0.45201 2.45456 0.473015C2.36837 0.494914 2.26766 0.495808 2.16114 0.496702C1.99846 0.498042 1.82996 0.49983 1.68568 0.578041C1.54139 0.656251 1.4586 0.79033 1.3787 0.919488C1.32689 1.00306 1.27799 1.08261 1.21698 1.13848C1.15598 1.19479 1.07028 1.23993 0.97973 1.28775C0.839318 1.36149 0.694061 1.43792 0.609812 1.5711C0.525563 1.70429 0.523627 1.85981 0.52169 2.00997C0.520722 2.10829 0.519753 2.20125 0.496028 2.2808C0.472788 2.35812 0.423885 2.43812 0.372078 2.52259C0.287346 2.66023 0.200195 2.80236 0.200195 2.96905C0.200195 3.1353 0.287347 3.27787 0.372078 3.41552C0.423885 3.49998 0.473272 3.57998 0.496028 3.65775C0.519754 3.7373 0.520722 3.83026 0.52169 3.92858C0.523142 4.07874 0.525079 4.23427 0.609812 4.36745C0.694543 4.50063 0.839802 4.57705 0.97973 4.6508C1.04752 4.68655 1.11239 4.72052 1.16614 4.75895L0.219082 6.2726C0.198262 6.30568 0.200682 6.34679 0.224408 6.37763C0.248617 6.40847 0.289772 6.42366 0.330444 6.41651L1.34384 6.23149L1.67696 7.13425C1.69052 7.17045 1.72538 7.19593 1.76605 7.1995C1.76944 7.19995 1.77283 7.19995 1.77621 7.19995C1.8135 7.19995 1.84836 7.18163 1.86724 7.15124L2.8177 5.63221C2.93584 5.69031 3.06027 5.73902 3.19971 5.73902C3.33964 5.73902 3.46359 5.69031 3.58221 5.63221L4.53267 7.15124C4.55155 7.18163 4.58641 7.19995 4.62369 7.19995C4.62708 7.19995 4.63047 7.19995 4.63386 7.1995C4.67501 7.19593 4.70988 7.17045 4.72295 7.13425L5.05607 6.23149L6.06946 6.41651C6.11013 6.42366 6.15129 6.40891 6.1755 6.37763C6.19971 6.34679 6.20165 6.30568 6.18083 6.2726L5.23425 4.75895V4.7585ZM1.80094 6.86835L1.51285 6.08759C1.49833 6.04781 1.45766 6.02189 1.41311 6.02189C1.40633 6.02189 1.39955 6.02234 1.39278 6.02368L0.516408 6.18367L1.31096 4.91349C1.31193 4.91483 1.31241 4.91617 1.31338 4.91706C1.32355 4.93226 1.33371 4.94745 1.34388 4.96354C1.34485 4.96488 1.34582 4.96667 1.34679 4.96801C1.35695 4.98455 1.36761 5.00108 1.37777 5.01806C1.45766 5.14767 1.54046 5.28175 1.68475 5.35951C1.82904 5.43772 1.99753 5.43906 2.16021 5.44085C2.17377 5.44085 2.18684 5.4413 2.19992 5.4413C2.29191 5.44264 2.37809 5.44577 2.45363 5.46498C2.4667 5.46856 2.48026 5.47258 2.49382 5.47705C2.49721 5.47839 2.5006 5.47929 2.50399 5.48063C2.51512 5.48465 2.52626 5.48867 2.53739 5.49314C2.53981 5.49403 2.54224 5.49493 2.54466 5.49582C2.55821 5.50163 2.57226 5.50744 2.5863 5.51415C2.58823 5.51504 2.58969 5.51593 2.59162 5.51683C2.60421 5.52264 2.6168 5.52889 2.62987 5.53515C2.63132 5.5356 2.63229 5.53649 2.63375 5.53694L1.80095 6.86788L1.80094 6.86835ZM2.82015 5.41099C2.72138 5.35915 2.61921 5.30596 2.51027 5.27825C2.39746 5.24965 2.27835 5.24831 2.16311 5.24741C2.02173 5.24607 1.88761 5.24473 1.79174 5.19289C1.77964 5.18663 1.76802 5.17904 1.75737 5.17099C1.6799 5.11423 1.62179 5.02083 1.56128 4.9225C1.5482 4.9015 1.53513 4.88004 1.52157 4.85859C1.52109 4.8577 1.52061 4.8568 1.52012 4.85591C1.50705 4.83535 1.49349 4.81479 1.47945 4.79468C1.47848 4.7929 1.47751 4.79155 1.47606 4.78977C1.46202 4.7701 1.44798 4.75133 1.43249 4.73301C1.43103 4.73077 1.4291 4.72899 1.42764 4.72675C1.41263 4.70888 1.39666 4.69145 1.38019 4.67536C1.37874 4.67402 1.37777 4.67223 1.37632 4.67089C1.37584 4.67044 1.37487 4.66999 1.37438 4.66955C1.37148 4.66686 1.36906 4.66418 1.36615 4.6615C1.28529 4.58687 1.18313 4.53279 1.08436 4.48095C0.962833 4.41704 0.847593 4.35627 0.791431 4.26777C0.735266 4.17928 0.733813 4.05593 0.732361 3.92498C0.731392 3.81862 0.72994 3.70868 0.698952 3.60454C0.668933 3.50398 0.610831 3.40969 0.555145 3.31807C0.480581 3.19695 0.410853 3.08299 0.410853 2.96769C0.410853 2.85238 0.48106 2.73797 0.555145 2.6173C0.61131 2.52613 0.668928 2.43183 0.698952 2.33128C0.72994 2.22714 0.731392 2.1172 0.732361 2.01084C0.733813 1.88034 0.735266 1.75698 0.791431 1.66805C0.847596 1.57956 0.962346 1.51922 1.08436 1.45531C1.18314 1.40347 1.2853 1.3494 1.36615 1.27476C1.44701 1.20013 1.5056 1.10582 1.56176 1.01466C1.631 0.902485 1.69684 0.796115 1.79223 0.744275C1.8881 0.692433 2.02174 0.691092 2.1636 0.689752C2.27884 0.688858 2.39794 0.687517 2.51076 0.658915C2.6197 0.631205 2.72186 0.577575 2.82064 0.526175C2.95185 0.45735 3.0758 0.392543 3.20024 0.392543C3.32516 0.392543 3.44911 0.457347 3.57984 0.526175C3.67861 0.578017 3.78077 0.631201 3.88971 0.658915C4.00253 0.687517 4.12164 0.688858 4.23688 0.689752C4.37825 0.691092 4.51238 0.692433 4.60824 0.744275C4.70411 0.796117 4.76948 0.902036 4.8392 1.01466C4.89537 1.10583 4.95395 1.20013 5.03481 1.27476C5.11567 1.3494 5.21783 1.40348 5.3166 1.45531C5.43813 1.51922 5.55337 1.57955 5.60953 1.66805C5.66569 1.75655 5.66715 1.87989 5.6686 2.01084C5.66957 2.1172 5.67102 2.22714 5.70201 2.33128C5.73203 2.43183 5.79013 2.52613 5.84582 2.6173C5.9199 2.73842 5.99011 2.85283 5.99011 2.96769C5.99011 3.08299 5.9199 3.1974 5.84582 3.31807C5.78965 3.40924 5.73203 3.50354 5.70201 3.6041C5.67102 3.70823 5.66957 3.81817 5.6686 3.92454C5.66715 4.05503 5.6657 4.17839 5.60953 4.26732C5.55337 4.35581 5.43862 4.41615 5.3166 4.48006C5.21782 4.5319 5.11566 4.58598 5.03481 4.66061C5.0319 4.66329 5.02948 4.66597 5.02658 4.66865C5.02609 4.6691 5.02513 4.66955 5.02464 4.66999C5.02319 4.67134 5.02222 4.67312 5.02077 4.67446C5.00382 4.691 4.98833 4.70798 4.97332 4.72586C4.97138 4.72809 4.96993 4.72988 4.96848 4.73212C4.95347 4.75044 4.93894 4.76966 4.9249 4.78887C4.92393 4.79066 4.92248 4.792 4.92151 4.79379C4.90747 4.8139 4.89391 4.83446 4.88084 4.85502C4.88036 4.85547 4.88036 4.85591 4.87987 4.85636C4.86631 4.87781 4.85276 4.89971 4.8392 4.92116C4.76996 5.03334 4.70412 5.13971 4.60824 5.19155C4.51237 5.24339 4.37874 5.24473 4.23687 5.24607C4.20782 5.24652 4.17877 5.24652 4.14972 5.24741C4.06208 5.24965 3.97396 5.25546 3.88971 5.27691C3.88051 5.27914 3.87131 5.28227 3.86211 5.28495C3.76334 5.314 3.66989 5.36272 3.57984 5.4101C3.44862 5.47892 3.32467 5.54373 3.20024 5.54373C3.07532 5.54373 2.95137 5.47892 2.82064 5.4101L2.82015 5.41099ZM5.00676 6.02416C4.95544 6.01478 4.90363 6.04204 4.88669 6.08807L4.5986 6.86883L3.7658 5.53789C3.76725 5.537 3.76871 5.53655 3.76967 5.53566C3.78226 5.5294 3.79485 5.52359 3.80696 5.51778C3.80889 5.51689 3.81083 5.51599 3.81277 5.5151C3.82681 5.50884 3.84037 5.50258 3.85441 5.49678C3.85683 5.49588 3.85925 5.49499 3.86167 5.49365C3.87281 5.48918 3.88394 5.48516 3.89508 5.48113C3.89847 5.47979 3.90186 5.4789 3.90525 5.47756C3.9188 5.47309 3.93187 5.46907 3.94495 5.46549C4.03113 5.44359 4.13184 5.4427 4.23836 5.4418C4.27903 5.44136 4.32019 5.44091 4.36086 5.43957C4.48384 5.43465 4.60538 5.41946 4.71384 5.36091C4.74144 5.34572 4.76613 5.32829 4.78985 5.30952C4.88911 5.23086 4.95642 5.1236 5.02081 5.01902C5.03049 5.00293 5.04066 4.98729 5.05035 4.97164C5.05228 4.96896 5.05373 4.96628 5.05567 4.9636C5.06535 4.94796 5.07552 4.93321 5.08521 4.91846C5.08617 4.91712 5.08714 4.91578 5.08811 4.91444L5.88266 6.18463L5.00629 6.02463L5.00676 6.02416Z" stroke="white" stroke-width="0.4" mask="url(#path-1-outside-1_2254_104)"/>
</svg>
