<svg width="12" height="12" viewBox="0 0 12 12" fill="none" xmlns="http://www.w3.org/2000/svg">
<path fill-rule="evenodd" clip-rule="evenodd" d="M5.99854 0C2.69048 0 0 2.61854 0 5.83931C0 9.06008 2.69048 11.6834 5.99854 11.6834C9.30659 11.6834 12 9.06008 12 5.83931C12 2.61854 9.30659 0 5.99854 0ZM5.99854 0.973694C8.7661 0.973694 10.9999 3.14477 10.9999 5.83931C10.9999 8.53385 8.7661 10.7087 5.99854 10.7087C3.23097 10.7087 1.00008 8.53385 1.00008 5.83931C1.00008 3.14477 3.23097 0.973694 5.99854 0.973694ZM6.00254 3C5.9368 2.99975 5.87164 3.01213 5.81081 3.03642C5.74998 3.06072 5.69467 3.09646 5.64804 3.14159C5.60142 3.18672 5.56439 3.24036 5.53908 3.29944C5.51377 3.35853 5.50068 3.42189 5.50055 3.4859V6.45072C5.50029 6.51498 5.5131 6.57864 5.53823 6.63805C5.56337 6.69747 5.60034 6.75145 5.647 6.79688C5.69367 6.84231 5.74911 6.87831 5.81013 6.90278C5.87116 6.92725 5.93655 6.93972 6.00254 6.93947C6.06821 6.93922 6.13318 6.92638 6.19375 6.90168C6.25432 6.87699 6.3093 6.84092 6.35555 6.79553C6.40181 6.75015 6.43842 6.69634 6.46332 6.63718C6.48821 6.57801 6.50089 6.51466 6.50063 6.45072V3.4859C6.50037 3.35727 6.44784 3.23397 6.35452 3.14293C6.26119 3.05189 6.13466 3.0005 6.00254 3ZM6.00254 7.46911C5.91343 7.46875 5.82513 7.48557 5.74273 7.51861C5.66033 7.55164 5.58546 7.60024 5.52245 7.66159C5.45944 7.72294 5.40953 7.79583 5.37559 7.87605C5.34166 7.95628 5.32438 8.04225 5.32475 8.12901C5.32556 8.30326 5.39742 8.47007 5.52452 8.59275C5.65163 8.71543 5.82357 8.78394 6.00254 8.78321C6.1805 8.78243 6.35094 8.71325 6.47678 8.59074C6.60262 8.46822 6.67367 8.30228 6.67447 8.12901C6.67522 7.95476 6.60485 7.78736 6.47885 7.66361C6.35284 7.53986 6.18152 7.4699 6.00254 7.46911Z" fill="black"/>
</svg>
