<svg width="3" height="10" viewBox="0 0 3 10" fill="none" xmlns="http://www.w3.org/2000/svg">
<path fill-rule="evenodd" clip-rule="evenodd" d="M1.4096 7.04799C0.6315 7.04799 0 7.67949 0 8.45759C0 9.23569 0.6315 9.86719 1.4096 9.86719C2.1877 9.86719 2.8192 9.23569 2.8192 8.45759C2.8192 7.67949 2.1877 7.04799 1.4096 7.04799ZM1.4096 3.524C0.6315 3.524 0 4.1555 0 4.9336C0 5.71169 0.6315 6.3432 1.4096 6.3432C2.1877 6.3432 2.8192 5.71169 2.8192 4.9336C2.8192 4.1555 2.1877 3.524 1.4096 3.524ZM1.4096 0C0.6315 0 0 0.6315 0 1.4096C0 2.1877 0.6315 2.8192 1.4096 2.8192C2.1877 2.8192 2.8192 2.1877 2.8192 1.4096C2.8192 0.6315 2.1877 0 1.4096 0Z" fill="black"/>
</svg>
